<svg width="35" height="36" viewBox="0 0 35 36" fill="none" xmlns="http://www.w3.org/2000/svg">
<g clip-path="url(#clip0_2014_429)">
<path d="M24.5068 11.4443H26.25V13.1875H24.5068V11.4443ZM24.5068 14.9648H26.25V16.708H24.5068V14.9648ZM24.5068 18.4512H26.25V20.1943H24.5068V18.4512ZM24.5068 21.9375H26.25V23.7148H24.5068V21.9375ZM24.5068 28.9443H26.25V30.6875H24.5068V28.9443ZM24.5068 25.458H26.25V27.2012H24.5068V25.458ZM10.4932 11.4443H12.2363V13.1875H10.4932V11.4443ZM10.4932 14.9648H12.2363V16.708H10.4932V14.9648ZM10.4932 18.4512H12.2363V20.1943H10.4932V18.4512ZM10.4932 21.9375H12.2363V23.7148H10.4932V21.9375ZM10.4932 28.9443H12.2363V30.6875H10.4932V28.9443ZM10.4932 25.458H12.2363V27.2012H10.4932V25.458ZM7.00684 11.4443H8.75V13.1875H7.00684V11.4443ZM7.00684 14.9648H8.75V16.708H7.00684V14.9648ZM7.00684 18.4512H8.75V20.1943H7.00684V18.4512ZM7.00684 21.9375H8.75V23.7148H7.00684V21.9375ZM7.00684 28.9443H8.75V30.6875H7.00684V28.9443ZM7.00684 25.458H8.75V27.2012H7.00684V25.458ZM14.0137 11.4443H15.7568V13.1875H14.0137V11.4443ZM14.0137 14.9648H15.7568V16.708H14.0137V14.9648ZM14.0137 18.4512H15.7568V20.1943H14.0137V18.4512ZM14.0137 21.9375H15.7568V23.7148H14.0137V21.9375ZM14.0137 28.9443H15.7568V30.6875H14.0137V28.9443ZM14.0137 25.458H15.7568V27.2012H14.0137V25.458ZM32.3682 34.208H31.5137V10.5898C31.5137 9.90625 31.2915 9.26253 30.8472 8.65869C30.4028 8.05485 29.873 7.65039 29.2578 7.44531L20.9863 4.71094V1.83984C20.9863 1.70312 20.9578 1.5721 20.9009 1.44678C20.8439 1.32145 20.7585 1.21321 20.6445 1.12207C20.5306 1.03093 20.4053 0.973957 20.2686 0.951172C20.1318 0.928387 19.9951 0.939777 19.8584 0.985352L4.0332 5.73633C3.39518 5.91862 2.854 6.31169 2.40967 6.91553C1.96533 7.51937 1.74316 8.15169 1.74316 8.8125V34.208H0.888672C0.638021 34.208 0.427246 34.2935 0.256348 34.4644C0.0854492 34.6353 0 34.8346 0 35.0625C0 35.3132 0.0854492 35.5239 0.256348 35.6948C0.427246 35.8657 0.638021 35.9512 0.888672 35.9512H32.3682C32.6188 35.9512 32.8296 35.8657 33.0005 35.6948C33.1714 35.5239 33.2568 35.3132 33.2568 35.0625C33.2568 34.8346 33.1714 34.6353 33.0005 34.4644C32.8296 34.2935 32.6188 34.208 32.3682 34.208ZM28.6768 9.08594C28.973 9.19987 29.2236 9.40495 29.4287 9.70117C29.6338 9.9974 29.7363 10.2936 29.7363 10.5898V34.208H20.9863V6.55664L28.6768 9.08594ZM3.48633 8.8125C3.48633 8.53906 3.59456 8.25993 3.81104 7.9751C4.02751 7.69027 4.27246 7.50228 4.5459 7.41113L19.2432 3.00195V34.208H3.48633V8.8125Z" fill="#7FCA35"/>
</g>
<defs>
<clipPath id="clip0_2014_429">
<rect width="35" height="35" fill="white" transform="matrix(1 0 0 -1 0 35.9512)"/>
</clipPath>
</defs>
</svg>
