<svg width="37" height="27" viewBox="0 0 37 27" fill="none" xmlns="http://www.w3.org/2000/svg">
<path d="M35.1113 8.40625C35.6582 8.40625 36.0684 8.95312 35.9316 9.43164L35.5215 11.0723C35.4531 11.4824 35.1113 11.6875 34.7695 11.6875H33.334C34.291 12.5078 34.9062 13.6699 34.9062 14.9688V18.25C34.9062 19.4121 34.4277 20.3691 33.8125 21.1211V24.8125C33.8125 26.043 32.7871 27 31.625 27H29.4375C28.207 27 27.25 26.043 27.25 24.8125V22.625H9.75V24.8125C9.75 26.043 8.72461 27 7.5625 27H5.375C4.14453 27 3.1875 26.043 3.1875 24.8125V21.1211C2.50391 20.3691 2.09375 19.4121 2.09375 18.25V14.9688C2.09375 13.6699 2.64062 12.5078 3.59766 11.6875H2.23047C1.82031 11.6875 1.47852 11.4824 1.41016 11.0723L1 9.43164C0.863281 8.95312 1.27344 8.40625 1.82031 8.40625H5.85352L7.01562 5.60352C8.17773 2.66406 10.9805 0.75 14.125 0.75H22.8066C25.9512 0.75 28.7539 2.66406 29.916 5.60352L31.0781 8.40625H35.1113ZM11.0488 7.24414L9.75 10.5938H27.25L25.8828 7.24414C25.3359 5.94531 24.1738 5.125 22.8066 5.125H14.125C12.7578 5.125 11.5957 5.94531 11.0488 7.24414ZM7.5625 18.25C8.86133 18.25 10.8438 18.4551 10.8438 17.1562C10.8438 15.8574 8.86133 13.875 7.5625 13.875C6.19531 13.875 5.375 14.7637 5.375 16.0625C5.375 17.4297 6.19531 18.25 7.5625 18.25ZM29.4375 18.25C30.7363 18.25 31.625 17.4297 31.625 16.0625C31.625 14.7637 30.7363 13.875 29.4375 13.875C28.0703 13.875 26.1562 15.8574 26.1562 17.1562C26.1562 18.4551 28.0703 18.25 29.4375 18.25Z" fill="#7FCA35"/>
</svg>
