<svg width="14" height="15" viewBox="0 0 14 15" fill="none" xmlns="http://www.w3.org/2000/svg">
<path d="M13.7812 7.75C13.7812 11.4961 10.7188 14.5312 7 14.5312C3.25391 14.5312 0.21875 11.4961 0.21875 7.75C0.21875 4.03125 3.25391 0.96875 7 0.96875C10.7188 0.96875 13.7812 4.03125 13.7812 7.75ZM6.20703 11.3594L11.2383 6.32812C11.4023 6.16406 11.4023 5.86328 11.2383 5.69922L10.6094 5.09766C10.4453 4.90625 10.1719 4.90625 10.0078 5.09766L5.90625 9.19922L3.96484 7.28516C3.80078 7.09375 3.52734 7.09375 3.36328 7.28516L2.73438 7.88672C2.57031 8.05078 2.57031 8.35156 2.73438 8.51562L5.57812 11.3594C5.74219 11.5234 6.04297 11.5234 6.20703 11.3594Z" fill="#7FCA35"/>
</svg>
