<svg width="32" height="30" viewBox="0 0 32 30" fill="none" xmlns="http://www.w3.org/2000/svg">
<path d="M30.875 16.9502C31.3125 16.9502 31.75 17.3877 31.75 17.8252V28.3252C31.75 28.8174 31.3125 29.2002 30.875 29.2002H18.625C18.1328 29.2002 17.75 28.8174 17.75 28.3252V17.8252C17.75 17.3877 18.1328 16.9502 18.625 16.9502H23V22.2002L24.75 21.0518L26.5 22.2002V16.9502H30.875ZM9.875 13.4502C9.38281 13.4502 9 13.0674 9 12.5752V2.0752C9 1.6377 9.38281 1.2002 9.875 1.2002H14.25V6.4502L16 5.30176L17.75 6.4502V1.2002H22.125C22.5625 1.2002 23 1.6377 23 2.0752V12.5752C23 13.0674 22.5625 13.4502 22.125 13.4502H9.875ZM13.375 16.9502C13.8125 16.9502 14.25 17.3877 14.25 17.8252V28.3252C14.25 28.8174 13.8125 29.2002 13.375 29.2002H1.125C0.632812 29.2002 0.25 28.8174 0.25 28.3252V17.8252C0.25 17.3877 0.632812 16.9502 1.125 16.9502H5.5V22.2002L7.25 21.0518L9 22.2002V16.9502H13.375Z" fill="white"/>
</svg>
