<svg width="32" height="33" viewBox="0 0 32 33" fill="none" xmlns="http://www.w3.org/2000/svg">
<rect y="0.896484" width="32" height="32" rx="16" fill="#81B441"/>
<path d="M23.75 16.8965C23.75 20.7715 20.9062 23.9902 17.1875 24.5527V19.1465H19L19.3438 16.8965H17.1875V15.459C17.1875 14.834 17.5 14.2402 18.4688 14.2402H19.4375V12.334C19.4375 12.334 18.5625 12.1777 17.6875 12.1777C15.9375 12.1777 14.7812 13.2715 14.7812 15.209V16.8965H12.8125V19.1465H14.7812V24.5527C11.0625 23.9902 8.25 20.7715 8.25 16.8965C8.25 12.6152 11.7188 9.14648 16 9.14648C20.2812 9.14648 23.75 12.6152 23.75 16.8965Z" fill="white"/>
</svg>
