<svg width="35" height="36" viewBox="0 0 35 36" fill="none" xmlns="http://www.w3.org/2000/svg">
<g clip-path="url(#clip0_2014_424)">
<path d="M34.7448 22.2451L19.2956 5.15527C19.0677 4.90462 18.7943 4.70524 18.4753 4.55713C18.1562 4.40902 17.8258 4.33496 17.484 4.33496C17.1423 4.33496 16.8118 4.40902 16.4928 4.55713C16.1738 4.70524 15.9004 4.90462 15.6725 5.15527L0.223307 22.2451C0.0638021 22.4274 -0.0102539 22.6382 0.00113932 22.8774C0.0125326 23.1167 0.0979818 23.3161 0.257487 23.4756C0.348633 23.5439 0.445475 23.6009 0.548014 23.6465C0.650553 23.6921 0.758789 23.7148 0.872721 23.7148C0.986654 23.7148 1.10059 23.6864 1.21452 23.6294C1.32845 23.5724 1.43099 23.4984 1.52214 23.4072L5.24772 19.3057V33.3193C5.24772 34.0485 5.50407 34.6694 6.01676 35.1821C6.52946 35.6948 7.139 35.9512 7.84538 35.9512H27.1227C27.8291 35.9512 28.4386 35.6948 28.9513 35.1821C29.464 34.6694 29.7204 34.0485 29.7204 33.3193V19.3057L33.446 23.4072C33.6283 23.5895 33.839 23.6864 34.0783 23.6978C34.3175 23.7091 34.5283 23.6351 34.7106 23.4756C34.8701 23.3161 34.9556 23.1167 34.967 22.8774C34.9784 22.6382 34.9043 22.4274 34.7448 22.2451ZM20.9704 34.208H13.9977V26.3125C13.9977 26.0846 14.0832 25.8853 14.2541 25.7144C14.425 25.5435 14.6243 25.458 14.8522 25.458H20.1159C20.3438 25.458 20.5431 25.5435 20.714 25.7144C20.8849 25.8853 20.9704 26.0846 20.9704 26.3125V34.208ZM27.9772 33.3193C27.9772 33.57 27.8918 33.7808 27.7209 33.9517C27.55 34.1226 27.3506 34.208 27.1227 34.208H22.7477V26.3125C22.7477 25.6061 22.4914 24.9966 21.9787 24.4839C21.466 23.9712 20.8451 23.7148 20.1159 23.7148H14.8522C14.123 23.7148 13.5021 23.9712 12.9894 24.4839C12.4767 24.9966 12.2204 25.6061 12.2204 26.3125V34.208H7.84538C7.61751 34.208 7.41813 34.1226 7.24723 33.9517C7.07633 33.7808 6.99089 33.57 6.99089 33.3193V17.3574L16.9714 6.35156C17.0397 6.26042 17.1195 6.19206 17.2106 6.14648C17.3018 6.10091 17.3929 6.07812 17.484 6.07812C17.5752 6.07812 17.6663 6.10091 17.7575 6.14648C17.8486 6.19206 17.9284 6.26042 17.9967 6.35156L27.9772 17.3574V33.3193Z" fill="#7FCA35"/>
</g>
<defs>
<clipPath id="clip0_2014_424">
<rect width="35" height="35" fill="white" transform="matrix(1 0 0 -1 0 35.9512)"/>
</clipPath>
</defs>
</svg>
