<svg width="21" height="22" viewBox="0 0 21 22" fill="none" xmlns="http://www.w3.org/2000/svg">
<path d="M10.5 0.928711C16.0781 0.928711 20.6719 5.52246 20.6719 11.1006C20.6719 16.7197 16.0781 21.2725 10.5 21.2725C4.88086 21.2725 0.328125 16.7197 0.328125 11.1006C0.328125 5.52246 4.88086 0.928711 10.5 0.928711ZM10.5 5.44043C9.51562 5.44043 8.77734 6.21973 8.77734 7.16309C8.77734 8.14746 9.51562 8.88574 10.5 8.88574C11.4434 8.88574 12.2227 8.14746 12.2227 7.16309C12.2227 6.21973 11.4434 5.44043 10.5 5.44043ZM12.7969 15.8584V14.874C12.7969 14.6279 12.5508 14.3818 12.3047 14.3818H11.8125V10.2803C11.8125 10.0342 11.5664 9.78809 11.3203 9.78809H8.69531C8.4082 9.78809 8.20312 10.0342 8.20312 10.2803V11.2646C8.20312 11.5518 8.4082 11.7568 8.69531 11.7568H9.1875V14.3818H8.69531C8.4082 14.3818 8.20312 14.6279 8.20312 14.874V15.8584C8.20312 16.1455 8.4082 16.3506 8.69531 16.3506H12.3047C12.5508 16.3506 12.7969 16.1455 12.7969 15.8584Z" fill="#81B441"/>
</svg>
