<svg width="32" height="33" viewBox="0 0 32 33" fill="none" xmlns="http://www.w3.org/2000/svg">
<rect y="0.896484" width="32" height="32" rx="16" fill="#81B441"/>
<path d="M16 13.3027C17.9688 13.3027 19.5938 14.9277 19.5938 16.8965C19.5938 18.8965 17.9688 20.4902 16 20.4902C14 20.4902 12.4062 18.8965 12.4062 16.8965C12.4062 14.9277 14 13.3027 16 13.3027ZM16 19.2402C17.2812 19.2402 18.3125 18.209 18.3125 16.8965C18.3125 15.6152 17.2812 14.584 16 14.584C14.6875 14.584 13.6562 15.6152 13.6562 16.8965C13.6562 18.209 14.7188 19.2402 16 19.2402ZM20.5625 13.1777C20.5625 13.6465 20.1875 14.0215 19.7188 14.0215C19.25 14.0215 18.875 13.6465 18.875 13.1777C18.875 12.709 19.25 12.334 19.7188 12.334C20.1875 12.334 20.5625 12.709 20.5625 13.1777ZM22.9375 14.0215C23 15.1777 23 18.6465 22.9375 19.8027C22.875 20.9277 22.625 21.8965 21.8125 22.7402C21 23.5527 20 23.8027 18.875 23.8652C17.7188 23.9277 14.25 23.9277 13.0938 23.8652C11.9688 23.8027 11 23.5527 10.1562 22.7402C9.34375 21.8965 9.09375 20.9277 9.03125 19.8027C8.96875 18.6465 8.96875 15.1777 9.03125 14.0215C9.09375 12.8965 9.34375 11.8965 10.1562 11.084C11 10.2715 11.9688 10.0215 13.0938 9.95898C14.25 9.89648 17.7188 9.89648 18.875 9.95898C20 10.0215 21 10.2715 21.8125 11.084C22.625 11.8965 22.875 12.8965 22.9375 14.0215ZM21.4375 21.0215C21.8125 20.1152 21.7188 17.9277 21.7188 16.8965C21.7188 15.8965 21.8125 13.709 21.4375 12.7715C21.1875 12.1777 20.7188 11.6777 20.125 11.459C19.1875 11.084 17 11.1777 16 11.1777C14.9688 11.1777 12.7812 11.084 11.875 11.459C11.25 11.709 10.7812 12.1777 10.5312 12.7715C10.1562 13.709 10.25 15.8965 10.25 16.8965C10.25 17.9277 10.1562 20.1152 10.5312 21.0215C10.7812 21.6465 11.25 22.1152 11.875 22.3652C12.7812 22.7402 14.9688 22.6465 16 22.6465C17 22.6465 19.1875 22.7402 20.125 22.3652C20.7188 22.1152 21.2188 21.6465 21.4375 21.0215Z" fill="white"/>
</svg>
