<svg width="32" height="33" viewBox="0 0 32 33" fill="none" xmlns="http://www.w3.org/2000/svg">
<rect y="0.896484" width="32" height="32" rx="16" fill="#81B441"/>
<path d="M22 9.89648C22.5312 9.89648 23 10.3652 23 10.9277V22.8965C23 23.459 22.5312 23.8965 22 23.8965H9.96875C9.4375 23.8965 9 23.459 9 22.8965V10.9277C9 10.3652 9.4375 9.89648 9.96875 9.89648H22ZM13.2188 21.8965V15.2402H11.1562V21.8965H13.2188ZM12.1875 14.3027C12.8438 14.3027 13.375 13.7715 13.375 13.1152C13.375 12.459 12.8438 11.8965 12.1875 11.8965C11.5 11.8965 10.9688 12.459 10.9688 13.1152C10.9688 13.7715 11.5 14.3027 12.1875 14.3027ZM21 21.8965V18.2402C21 16.459 20.5938 15.0527 18.5 15.0527C17.5 15.0527 16.8125 15.6152 16.5312 16.1465H16.5V15.2402H14.5312V21.8965H16.5938V18.6152C16.5938 17.7402 16.75 16.8965 17.8438 16.8965C18.9062 16.8965 18.9062 17.8965 18.9062 18.6465V21.8965H21Z" fill="white"/>
</svg>
