<svg width="41" height="42" viewBox="0 0 41 42" fill="none" xmlns="http://www.w3.org/2000/svg">
<g clip-path="url(#clip0_16_4408)">
<path d="M29.6016 5.60352H2.76562C2.14062 5.60352 1.60677 5.82487 1.16406 6.26758C0.721354 6.71029 0.5 7.24414 0.5 7.86914V23.9629C0.5 24.5879 0.721354 25.1217 1.16406 25.5645C1.60677 26.0072 2.14062 26.2285 2.76562 26.2285H4.48438V32.2051C4.48438 32.3874 4.53646 32.5632 4.64062 32.7324C4.74479 32.9017 4.88802 33.0124 5.07031 33.0645C5.1224 33.0905 5.18099 33.11 5.24609 33.123C5.3112 33.1361 5.36979 33.1426 5.42188 33.1426C5.55208 33.1426 5.67578 33.123 5.79297 33.084C5.91016 33.0449 6.00781 32.9733 6.08594 32.8691L12.7656 26.2285H14.0938C14.3542 26.2285 14.5755 26.1374 14.7578 25.9551C14.9401 25.7728 15.0312 25.5514 15.0312 25.291C15.0312 25.0306 14.9401 24.8027 14.7578 24.6074C14.5755 24.4121 14.3542 24.3145 14.0938 24.3145C14.0938 24.3145 13.8008 24.3145 13.2148 24.3145C12.6289 24.3145 12.3229 24.3275 12.2969 24.3535C12.1927 24.3535 12.0885 24.373 11.9844 24.4121C11.8802 24.4512 11.7891 24.5228 11.7109 24.627L6.39844 29.9395C6.39844 29.9395 6.39193 29.1517 6.37891 27.5762C6.36589 26.0007 6.35938 25.1999 6.35938 25.1738C6.35938 24.9395 6.26823 24.7376 6.08594 24.5684C5.90365 24.3991 5.68229 24.3145 5.42188 24.3145H2.76562C2.66146 24.3145 2.57031 24.2819 2.49219 24.2168C2.41406 24.1517 2.375 24.0671 2.375 23.9629V7.86914C2.375 7.76497 2.41406 7.68034 2.49219 7.61523C2.57031 7.55013 2.66146 7.51758 2.76562 7.51758H29.6016C29.6797 7.51758 29.7578 7.55013 29.8359 7.61523C29.9141 7.68034 29.9531 7.76497 29.9531 7.86914V14.041C29.9531 14.3014 30.0443 14.5228 30.2266 14.7051C30.4089 14.8874 30.6302 14.9785 30.8906 14.9785C31.151 14.9785 31.3724 14.8874 31.5547 14.7051C31.737 14.5228 31.8281 14.3014 31.8281 14.041V7.86914C31.8281 7.24414 31.6068 6.71029 31.1641 6.26758C30.7214 5.82487 30.2005 5.60352 29.6016 5.60352ZM38.2344 17.166H19.4844C18.8594 17.166 18.3255 17.3874 17.8828 17.8301C17.4401 18.2728 17.2188 18.7936 17.2188 19.3926V30.4082C17.2188 31.0072 17.4401 31.528 17.8828 31.9707C18.3255 32.4134 18.8594 32.6348 19.4844 32.6348H31.2422L35.9688 37.4004C36.0729 37.5046 36.1836 37.5762 36.3008 37.6152C36.418 37.6543 36.5417 37.6738 36.6719 37.6738C36.724 37.6738 36.7826 37.6673 36.8477 37.6543C36.9128 37.6413 36.9714 37.6217 37.0234 37.5957C37.2057 37.5436 37.349 37.4329 37.4531 37.2637C37.5573 37.0944 37.6094 36.9186 37.6094 36.7363V32.6348H38.2344C38.8594 32.6348 39.3932 32.4134 39.8359 31.9707C40.2786 31.528 40.5 31.0072 40.5 30.4082V19.3926C40.5 18.7936 40.2786 18.2728 39.8359 17.8301C39.3932 17.3874 38.8594 17.166 38.2344 17.166ZM38.625 30.4082C38.625 30.4863 38.5859 30.5645 38.5078 30.6426C38.4297 30.7207 38.3385 30.7598 38.2344 30.7598H36.6719C36.4115 30.7598 36.1901 30.8444 36.0078 31.0137C35.8255 31.1829 35.7344 31.3848 35.7344 31.6191C35.7083 31.6452 35.6953 32.127 35.6953 33.0645C35.6953 34.002 35.6953 34.4707 35.6953 34.4707L32.2969 31.0332C32.2969 31.0332 32.2839 31.0332 32.2578 31.0332C32.2578 31.0332 32.2578 31.0267 32.2578 31.0137C32.2578 31.0007 32.2448 30.9941 32.2188 30.9941C32.1406 30.916 32.0495 30.8574 31.9453 30.8184C31.8411 30.7793 31.737 30.7598 31.6328 30.7598H19.4844C19.3802 30.7598 19.2891 30.7207 19.2109 30.6426C19.1328 30.5645 19.0938 30.4863 19.0938 30.4082V19.3926C19.0938 19.3145 19.1328 19.2363 19.2109 19.1582C19.2891 19.0801 19.3802 19.041 19.4844 19.041H38.2344C38.3385 19.041 38.4297 19.0801 38.5078 19.1582C38.5859 19.2363 38.625 19.3145 38.625 19.3926V30.4082ZM28.8594 23.9629C28.599 23.9629 28.3776 24.054 28.1953 24.2363C28.013 24.4186 27.9219 24.64 27.9219 24.9004C27.9219 25.1608 28.013 25.3822 28.1953 25.5645C28.3776 25.7467 28.599 25.8379 28.8594 25.8379C29.1198 25.8379 29.3411 25.7467 29.5234 25.5645C29.7057 25.3822 29.7969 25.1608 29.7969 24.9004C29.7969 24.64 29.7057 24.4186 29.5234 24.2363C29.3411 24.054 29.1198 23.9629 28.8594 23.9629ZM24.7578 11.8535C24.7578 11.8535 23.8594 11.8535 22.0625 11.8535C20.2917 11.8535 18.332 11.8535 16.1836 11.8535C14.0352 11.8535 12.0625 11.8535 10.2656 11.8535C8.46875 11.8535 7.57031 11.8535 7.57031 11.8535C7.3099 11.8535 7.08854 11.9447 6.90625 12.127C6.72396 12.3092 6.63281 12.5306 6.63281 12.791C6.63281 13.0514 6.72396 13.2728 6.90625 13.4551C7.08854 13.6374 7.3099 13.7285 7.57031 13.7285H24.7578C25.0182 13.7285 25.2396 13.6374 25.4219 13.4551C25.6042 13.2728 25.6953 13.0514 25.6953 12.791C25.6953 12.5306 25.6042 12.3092 25.4219 12.127C25.2396 11.9447 25.0182 11.8535 24.7578 11.8535ZM14.0938 18.1035H7.57031C7.3099 18.1035 7.08854 18.1947 6.90625 18.377C6.72396 18.5592 6.63281 18.7806 6.63281 19.041C6.63281 19.3014 6.72396 19.5228 6.90625 19.7051C7.08854 19.8874 7.3099 19.9785 7.57031 19.9785H14.0938C14.3542 19.9785 14.5755 19.8874 14.7578 19.7051C14.9401 19.5228 15.0312 19.3014 15.0312 19.041C15.0312 18.7806 14.9401 18.5592 14.7578 18.377C14.5755 18.1947 14.3542 18.1035 14.0938 18.1035ZM24.4844 23.9629C24.224 23.9629 24.0026 24.054 23.8203 24.2363C23.638 24.4186 23.5469 24.64 23.5469 24.9004C23.5469 25.1608 23.638 25.3822 23.8203 25.5645C24.0026 25.7467 24.224 25.8379 24.4844 25.8379C24.7448 25.8379 24.9661 25.7467 25.1484 25.5645C25.3307 25.3822 25.4219 25.1608 25.4219 24.9004C25.4219 24.64 25.3307 24.4186 25.1484 24.2363C24.9661 24.054 24.7448 23.9629 24.4844 23.9629ZM33.2344 23.9629C32.974 23.9629 32.7526 24.054 32.5703 24.2363C32.388 24.4186 32.2969 24.64 32.2969 24.9004C32.2969 25.1608 32.388 25.3822 32.5703 25.5645C32.7526 25.7467 32.974 25.8379 33.2344 25.8379C33.4948 25.8379 33.7161 25.7467 33.8984 25.5645C34.0807 25.3822 34.1719 25.1608 34.1719 24.9004C34.1719 24.64 34.0807 24.4186 33.8984 24.2363C33.7161 24.054 33.4948 23.9629 33.2344 23.9629Z" fill="#66A22A"/>
</g>
<defs>
<clipPath id="clip0_16_4408">
<rect width="40" height="41" fill="white" transform="matrix(1 0 0 -1 0.5 41.6504)"/>
</clipPath>
</defs>
</svg>
