<svg width="35" height="36" viewBox="0 0 35 36" fill="none" xmlns="http://www.w3.org/2000/svg">
<g clip-path="url(#clip0_2014_435)">
<path d="M34.3848 34.7891H32.0264C32.0264 34.6751 32.0378 34.5669 32.0605 34.4644C32.0833 34.3618 32.0947 34.2764 32.0947 34.208C32.0947 33.3877 31.8726 32.6528 31.4282 32.0034C30.9839 31.354 30.4199 30.8698 29.7363 30.5508V10.8633C29.7363 10.681 29.6851 10.5443 29.5825 10.4531C29.48 10.362 29.349 10.3164 29.1895 10.3164H20.3711V1.49805C20.3711 1.33854 20.3255 1.20752 20.2344 1.10498C20.1432 1.00244 20.0065 0.951172 19.8242 0.951172H4.0332C3.85091 0.951172 3.7085 1.00244 3.60596 1.10498C3.50342 1.20752 3.45215 1.33854 3.45215 1.49805V34.7891H0.546875C0.38737 34.7891 0.256348 34.8346 0.153809 34.9258C0.0512695 35.0169 0 35.1536 0 35.3359C0 35.4954 0.0512695 35.6265 0.153809 35.729C0.256348 35.8315 0.38737 35.8828 0.546875 35.8828H34.4531C34.6126 35.8828 34.7437 35.8315 34.8462 35.729C34.9487 35.6265 35 35.4954 35 35.3359C35 35.1536 34.9373 35.0169 34.812 34.9258C34.6867 34.8346 34.5443 34.7891 34.3848 34.7891ZM28.4717 30.1406C28.3805 30.1406 28.2837 30.1292 28.1812 30.1064C28.0786 30.0837 27.9932 30.0723 27.9248 30.0723C27.7197 30.0723 27.5033 30.0894 27.2754 30.1235C27.0475 30.1577 26.8538 30.209 26.6943 30.2773C26.6488 30.209 26.5804 30.1577 26.4893 30.1235C26.3981 30.0894 26.307 30.0723 26.2158 30.0723C26.0335 30.0723 25.8911 30.1178 25.7886 30.209C25.686 30.3001 25.6348 30.4368 25.6348 30.6191V30.8242C25.5436 30.8926 25.4468 30.978 25.3442 31.0806C25.2417 31.1831 25.1335 31.2799 25.0195 31.3711C25.0195 31.3711 25.0081 31.3825 24.9854 31.4053C24.9626 31.4281 24.9512 31.4395 24.9512 31.4395C24.7005 31.1432 24.4214 30.8869 24.1138 30.6704C23.8062 30.4539 23.4814 30.3001 23.1396 30.209C23.1169 30.1634 23.0713 30.1292 23.0029 30.1064C22.9346 30.0837 22.8434 30.0723 22.7295 30.0723C22.7067 30.0723 22.6782 30.0723 22.644 30.0723C22.6099 30.0723 22.57 30.0723 22.5244 30.0723C22.4561 30.0723 22.3877 30.0723 22.3193 30.0723C22.251 30.0723 22.1826 30.0723 22.1143 30.0723C21.932 30.0723 21.744 30.0894 21.5503 30.1235C21.3566 30.1577 21.1686 30.209 20.9863 30.2773C20.9635 30.2773 20.9465 30.2773 20.9351 30.2773C20.9237 30.2773 20.8952 30.3001 20.8496 30.3457C20.6445 30.1634 20.4224 30.021 20.1831 29.9185C19.9438 29.8159 19.7103 29.7191 19.4824 29.6279C19.4368 29.6279 19.4084 29.6279 19.397 29.6279C19.3856 29.6279 19.3685 29.6279 19.3457 29.6279C19.3001 29.6279 19.2716 29.6279 19.2603 29.6279C19.2489 29.6279 19.2318 29.6279 19.209 29.6279C19.209 29.6279 19.2033 29.6279 19.1919 29.6279C19.1805 29.6279 19.1634 29.6279 19.1406 29.6279C19.0951 29.6279 19.0666 29.6279 19.0552 29.6279C19.0438 29.6279 19.0267 29.6279 19.0039 29.6279C19.0039 29.6279 18.9982 29.6279 18.9868 29.6279C18.9754 29.6279 18.9583 29.6279 18.9355 29.6279C18.89 29.6279 18.8615 29.6279 18.8501 29.6279C18.8387 29.6279 18.8216 29.6279 18.7988 29.6279C18.7988 29.6279 18.7874 29.6279 18.7646 29.6279C18.7419 29.6279 18.7305 29.6279 18.7305 29.6279C18.7305 29.6279 18.7134 29.6279 18.6792 29.6279C18.645 29.6279 18.6279 29.6279 18.6279 29.6279C18.6279 29.6279 18.6051 29.6279 18.5596 29.6279C18.514 29.6279 18.4912 29.6279 18.4912 29.6279C18.4912 29.6279 18.4798 29.6279 18.457 29.6279C18.4342 29.6279 18.4001 29.6279 18.3545 29.6279C18.3545 29.6279 18.3431 29.6279 18.3203 29.6279C18.2975 29.6279 18.2861 29.6279 18.2861 29.6279C18.0127 29.6735 17.7507 29.7362 17.5 29.8159C17.2493 29.8957 17.0101 30.0039 16.7822 30.1406V11.4102H28.4033L28.4717 30.1406ZM4.58008 2.11328H19.1406V10.3164H16.2354C16.0531 10.3164 15.9106 10.362 15.8081 10.4531C15.7056 10.5443 15.6543 10.681 15.6543 10.8633V29.0127C15.5176 28.876 15.3638 28.7393 15.1929 28.6025C15.022 28.4658 14.834 28.3519 14.6289 28.2607C14.6289 28.2607 14.6175 28.2493 14.5947 28.2266C14.5719 28.2038 14.5605 28.1924 14.5605 28.1924C14.5605 28.1924 14.5549 28.1924 14.5435 28.1924C14.5321 28.1924 14.515 28.1924 14.4922 28.1924C14.2871 28.0785 14.0649 27.9873 13.8257 27.9189C13.5864 27.8506 13.3643 27.805 13.1592 27.7822C13.1364 27.7822 13.1079 27.7822 13.0737 27.7822C13.0396 27.7822 13.0225 27.7822 13.0225 27.7822C13.0225 27.7822 12.9997 27.7822 12.9541 27.7822C12.9313 27.7822 12.9028 27.7822 12.8687 27.7822C12.8345 27.7822 12.7946 27.7822 12.749 27.7822C12.2933 27.7822 11.8717 27.8449 11.4844 27.9702C11.097 28.0955 10.7324 28.2835 10.3906 28.5342V28.3291C10.3906 28.1468 10.3451 28.0101 10.2539 27.9189C10.1628 27.8278 10.026 27.7822 9.84375 27.7822C9.66146 27.7822 9.52474 27.8278 9.43359 27.9189C9.34245 28.0101 9.29688 28.1468 9.29688 28.3291V29.4912C9.29688 29.5368 9.29688 29.5767 9.29688 29.6108C9.29688 29.645 9.31966 29.6849 9.36523 29.7305C9.22852 29.9583 9.10889 30.1976 9.00635 30.4482C8.90381 30.6989 8.84115 30.9837 8.81836 31.3027C8.45378 31.3483 8.11768 31.4338 7.81006 31.5591C7.50244 31.6844 7.2347 31.8268 7.00684 31.9863V31.8496C7.00684 31.6901 6.95557 31.5591 6.85303 31.4565C6.75049 31.354 6.61947 31.3027 6.45996 31.3027C6.27767 31.3027 6.13525 31.354 6.03271 31.4565C5.93018 31.5591 5.87891 31.6901 5.87891 31.8496V33.0459C5.87891 33.0687 5.87891 33.0972 5.87891 33.1313C5.87891 33.1655 5.87891 33.2054 5.87891 33.251C5.67383 33.4561 5.52572 33.6896 5.43457 33.9517C5.34342 34.2137 5.26367 34.4928 5.19531 34.7891H4.58008V2.11328ZM9.02344 32.499C9.04622 32.499 9.06331 32.499 9.07471 32.499C9.0861 32.499 9.11458 32.499 9.16016 32.499C9.18294 32.499 9.20003 32.499 9.21143 32.499C9.22282 32.499 9.2513 32.499 9.29688 32.499C9.45638 32.499 9.5874 32.4478 9.68994 32.3452C9.79248 32.2427 9.84375 32.1003 9.84375 31.918C9.84375 31.0977 10.1286 30.4084 10.6982 29.8501C11.2679 29.2918 11.9515 29.0127 12.749 29.0127C13.4782 29.0127 14.1162 29.2463 14.6631 29.7134C15.21 30.1805 15.5176 30.7786 15.5859 31.5078C15.6315 31.5762 15.6714 31.6445 15.7056 31.7129C15.7397 31.7812 15.791 31.8268 15.8594 31.8496C15.8594 31.8496 15.8708 31.8496 15.8936 31.8496C15.9163 31.8496 15.9277 31.8496 15.9277 31.8496C15.9277 31.8496 15.9391 31.8496 15.9619 31.8496C15.9847 31.8496 15.9961 31.8496 15.9961 31.8496C16.0417 31.8496 16.0702 31.8496 16.0815 31.8496C16.0929 31.8496 16.11 31.8496 16.1328 31.8496C16.2467 31.8496 16.3436 31.8325 16.4233 31.7983C16.5031 31.7642 16.5771 31.6901 16.6455 31.5762L16.7139 31.5078C16.9417 31.2344 17.2152 31.0179 17.5342 30.8584C17.8532 30.6989 18.195 30.6191 18.5596 30.6191C18.7874 30.6191 18.9868 30.6476 19.1577 30.7046C19.3286 30.7616 19.5052 30.847 19.6875 30.9609C19.3457 31.2799 19.0723 31.6502 18.8672 32.0718C18.6621 32.4933 18.5596 32.932 18.5596 33.3877C18.5596 33.4105 18.5596 33.4447 18.5596 33.4902C18.5596 33.5358 18.5596 33.57 18.5596 33.5928C18.5596 33.7979 18.5767 33.9915 18.6108 34.1738C18.645 34.3561 18.7077 34.5612 18.7988 34.7891H6.3916C6.52832 34.151 6.83594 33.6156 7.31445 33.1826C7.79297 32.7497 8.36263 32.5218 9.02344 32.499ZM20.166 34.7891C20.0749 34.6068 19.9951 34.4017 19.9268 34.1738C19.8584 33.946 19.8242 33.7295 19.8242 33.5244C19.8242 33.2054 19.8869 32.8978 20.0122 32.6016C20.1375 32.3053 20.3027 32.0547 20.5078 31.8496C20.5534 31.8268 20.5933 31.7983 20.6274 31.7642C20.6616 31.73 20.7129 31.6901 20.7812 31.6445C20.8268 31.6445 20.8781 31.6445 20.9351 31.6445C20.992 31.6445 21.0319 31.6217 21.0547 31.5762C21.7155 31.2344 22.3649 31.1945 23.0029 31.4565C23.641 31.7186 24.0853 32.18 24.3359 32.8408C24.3587 32.932 24.41 33.0117 24.4897 33.0801C24.5695 33.1484 24.7005 33.1826 24.8828 33.1826C24.9284 33.1826 24.9683 33.1769 25.0024 33.1655C25.0366 33.1541 25.0651 33.137 25.0879 33.1143C25.1562 33.1143 25.2246 33.0858 25.293 33.0288C25.3613 32.9718 25.4069 32.9092 25.4297 32.8408C25.5436 32.5902 25.6803 32.3737 25.8398 32.1914C25.9993 32.0091 26.193 31.8496 26.4209 31.7129C26.4437 31.7129 26.4722 31.7015 26.5063 31.6787C26.5405 31.6559 26.5804 31.6217 26.626 31.5762C26.8311 31.485 27.0418 31.4167 27.2583 31.3711C27.4748 31.3255 27.6969 31.3027 27.9248 31.3027C28.7679 31.3027 29.4629 31.5876 30.0098 32.1572C30.5566 32.7269 30.8301 33.4105 30.8301 34.208C30.8301 34.3219 30.8301 34.4245 30.8301 34.5156C30.8301 34.6068 30.8073 34.6979 30.7617 34.7891H20.166ZM19.209 16.127C19.0267 16.127 18.8843 16.1782 18.7817 16.2808C18.6792 16.3833 18.6279 16.5143 18.6279 16.6738V17.8701C18.6279 18.0296 18.6792 18.1606 18.7817 18.2632C18.8843 18.3657 19.0267 18.417 19.209 18.417C19.3685 18.417 19.4995 18.3657 19.6021 18.2632C19.7046 18.1606 19.7559 18.0296 19.7559 17.8701V16.6738C19.7559 16.5143 19.7046 16.3833 19.6021 16.2808C19.4995 16.1782 19.3685 16.127 19.209 16.127ZM19.209 26.5859C19.0267 26.5859 18.8843 26.6372 18.7817 26.7397C18.6792 26.8423 18.6279 26.9733 18.6279 27.1328V28.3291C18.6279 28.5114 18.6792 28.6481 18.7817 28.7393C18.8843 28.8304 19.0267 28.876 19.209 28.876C19.3685 28.876 19.4995 28.8304 19.6021 28.7393C19.7046 28.6481 19.7559 28.5114 19.7559 28.3291V27.1328C19.7559 26.9961 19.7046 26.8708 19.6021 26.7568C19.4995 26.6429 19.3685 26.5859 19.209 26.5859ZM19.209 19.5791C19.0267 19.5791 18.8843 19.6304 18.7817 19.7329C18.6792 19.8354 18.6279 19.9779 18.6279 20.1602V21.3223C18.6279 21.5046 18.6792 21.6413 18.7817 21.7324C18.8843 21.8236 19.0267 21.8691 19.209 21.8691C19.3685 21.8691 19.4995 21.8236 19.6021 21.7324C19.7046 21.6413 19.7559 21.5046 19.7559 21.3223V20.1602C19.7559 20.0234 19.7046 19.8924 19.6021 19.7671C19.4995 19.6418 19.3685 19.5791 19.209 19.5791ZM19.209 23.1338C19.0267 23.1338 18.8843 23.1794 18.7817 23.2705C18.6792 23.3617 18.6279 23.4984 18.6279 23.6807V24.877C18.6279 25.0365 18.6792 25.1675 18.7817 25.27C18.8843 25.3726 19.0267 25.4238 19.209 25.4238C19.3685 25.4238 19.4995 25.3726 19.6021 25.27C19.7046 25.1675 19.7559 25.0365 19.7559 24.877V23.6807C19.7559 23.4984 19.7046 23.3617 19.6021 23.2705C19.4995 23.1794 19.3685 23.1338 19.209 23.1338ZM19.209 12.6064C19.0267 12.6064 18.8843 12.652 18.7817 12.7432C18.6792 12.8343 18.6279 12.971 18.6279 13.1533V14.3154C18.6279 14.4977 18.6792 14.6401 18.7817 14.7427C18.8843 14.8452 19.0267 14.8965 19.209 14.8965C19.3685 14.8965 19.4995 14.8452 19.6021 14.7427C19.7046 14.6401 19.7559 14.4977 19.7559 14.3154V13.1533C19.7559 13.0166 19.7046 12.8913 19.6021 12.7773C19.4995 12.6634 19.3685 12.6064 19.209 12.6064ZM22.6611 18.417C22.8434 18.417 22.9801 18.3657 23.0713 18.2632C23.1624 18.1606 23.208 18.0296 23.208 17.8701V16.6738C23.208 16.5143 23.1624 16.3833 23.0713 16.2808C22.9801 16.1782 22.8434 16.127 22.6611 16.127C22.4788 16.127 22.3421 16.1782 22.251 16.2808C22.1598 16.3833 22.1143 16.5143 22.1143 16.6738V17.8701C22.1143 18.0296 22.1598 18.1606 22.251 18.2632C22.3421 18.3657 22.4788 18.417 22.6611 18.417ZM22.6611 14.9648C22.8434 14.9648 22.9801 14.9136 23.0713 14.811C23.1624 14.7085 23.208 14.5661 23.208 14.3838V13.2217C23.208 13.0394 23.1624 12.9027 23.0713 12.8115C22.9801 12.7204 22.8434 12.6748 22.6611 12.6748C22.4788 12.6748 22.3421 12.7204 22.251 12.8115C22.1598 12.9027 22.1143 13.0394 22.1143 13.2217V14.3838C22.1143 14.5661 22.1598 14.7085 22.251 14.811C22.3421 14.9136 22.4788 14.9648 22.6611 14.9648ZM22.6611 21.9375C22.8434 21.9375 22.9801 21.8919 23.0713 21.8008C23.1624 21.7096 23.208 21.5729 23.208 21.3906V20.2285C23.208 20.0462 23.1624 19.9038 23.0713 19.8013C22.9801 19.6987 22.8434 19.6475 22.6611 19.6475C22.4788 19.6475 22.3421 19.6987 22.251 19.8013C22.1598 19.9038 22.1143 20.0462 22.1143 20.2285V21.3906C22.1143 21.5729 22.1598 21.7096 22.251 21.8008C22.3421 21.8919 22.4788 21.9375 22.6611 21.9375ZM22.6611 25.4238C22.8434 25.4238 22.9801 25.3726 23.0713 25.27C23.1624 25.1675 23.208 25.0365 23.208 24.877V23.6807C23.208 23.4984 23.1624 23.3617 23.0713 23.2705C22.9801 23.1794 22.8434 23.1338 22.6611 23.1338C22.4788 23.1338 22.3421 23.1794 22.251 23.2705C22.1598 23.3617 22.1143 23.4984 22.1143 23.6807V24.877C22.1143 25.0365 22.1598 25.1675 22.251 25.27C22.3421 25.3726 22.4788 25.4238 22.6611 25.4238ZM22.6611 28.9443C22.8434 28.9443 22.9801 28.8988 23.0713 28.8076C23.1624 28.7165 23.208 28.5798 23.208 28.3975V27.2354C23.208 27.0531 23.1624 26.9106 23.0713 26.8081C22.9801 26.7056 22.8434 26.6543 22.6611 26.6543C22.4788 26.6543 22.3421 26.7056 22.251 26.8081C22.1598 26.9106 22.1143 27.0531 22.1143 27.2354V28.3975C22.1143 28.5798 22.1598 28.7165 22.251 28.8076C22.3421 28.8988 22.4788 28.9443 22.6611 28.9443ZM26.2158 21.9375C26.3753 21.9375 26.5063 21.8919 26.6089 21.8008C26.7114 21.7096 26.7627 21.5729 26.7627 21.3906V20.2285C26.7627 20.0462 26.7114 19.9038 26.6089 19.8013C26.5063 19.6987 26.3753 19.6475 26.2158 19.6475C26.0335 19.6475 25.8911 19.6987 25.7886 19.8013C25.686 19.9038 25.6348 20.0462 25.6348 20.2285V21.3906C25.612 21.5729 25.6576 21.7096 25.7715 21.8008C25.8854 21.8919 26.0335 21.9375 26.2158 21.9375ZM26.2158 18.417C26.3753 18.417 26.5063 18.3657 26.6089 18.2632C26.7114 18.1606 26.7627 18.0296 26.7627 17.8701V16.6738C26.7627 16.5143 26.7114 16.3833 26.6089 16.2808C26.5063 16.1782 26.3753 16.127 26.2158 16.127C26.0335 16.127 25.8911 16.1782 25.7886 16.2808C25.686 16.3833 25.6348 16.5143 25.6348 16.6738V17.8701C25.612 18.0296 25.6576 18.1606 25.7715 18.2632C25.8854 18.3657 26.0335 18.417 26.2158 18.417ZM26.2158 28.9443C26.3753 28.9443 26.5063 28.8988 26.6089 28.8076C26.7114 28.7165 26.7627 28.5798 26.7627 28.3975V27.2354C26.7627 27.0531 26.7114 26.9106 26.6089 26.8081C26.5063 26.7056 26.3753 26.6543 26.2158 26.6543C26.0335 26.6543 25.8911 26.7056 25.7886 26.8081C25.686 26.9106 25.6348 27.0531 25.6348 27.2354V28.3975C25.612 28.5798 25.6576 28.7165 25.7715 28.8076C25.8854 28.8988 26.0335 28.9443 26.2158 28.9443ZM26.2158 25.4238C26.3753 25.4238 26.5063 25.3726 26.6089 25.27C26.7114 25.1675 26.7627 25.0365 26.7627 24.877V23.6807C26.7627 23.4984 26.7114 23.3617 26.6089 23.2705C26.5063 23.1794 26.3753 23.1338 26.2158 23.1338C26.0335 23.1338 25.8911 23.1794 25.7886 23.2705C25.686 23.3617 25.6348 23.4984 25.6348 23.6807V24.877C25.612 25.0365 25.6576 25.1675 25.7715 25.27C25.8854 25.3726 26.0335 25.4238 26.2158 25.4238ZM26.2158 14.9648C26.3753 14.9648 26.5063 14.9136 26.6089 14.811C26.7114 14.7085 26.7627 14.5661 26.7627 14.3838V13.2217C26.7627 13.0394 26.7114 12.9027 26.6089 12.8115C26.5063 12.7204 26.3753 12.6748 26.2158 12.6748C26.0335 12.6748 25.8911 12.7204 25.7886 12.8115C25.686 12.9027 25.6348 13.0394 25.6348 13.2217V14.3838C25.612 14.5661 25.6576 14.7085 25.7715 14.811C25.8854 14.9136 26.0335 14.9648 26.2158 14.9648ZM6.3916 23.1338C6.55111 23.1338 6.68213 23.0825 6.78467 22.98C6.88721 22.8774 6.93848 22.7464 6.93848 22.5869V21.3906C6.93848 21.2311 6.88721 21.1001 6.78467 20.9976C6.68213 20.895 6.55111 20.8438 6.3916 20.8438C6.20931 20.8438 6.06689 20.895 5.96436 20.9976C5.86182 21.1001 5.81055 21.2311 5.81055 21.3906V22.5869C5.78776 22.7236 5.83333 22.849 5.94727 22.9629C6.0612 23.0768 6.20931 23.1338 6.3916 23.1338ZM6.3916 26.5859C6.55111 26.5859 6.68213 26.5404 6.78467 26.4492C6.88721 26.3581 6.93848 26.2214 6.93848 26.0391V24.877C6.93848 24.6947 6.88721 24.5522 6.78467 24.4497C6.68213 24.3472 6.55111 24.2959 6.3916 24.2959C6.20931 24.2959 6.06689 24.3472 5.96436 24.4497C5.86182 24.5522 5.81055 24.6947 5.81055 24.877V26.0391C5.78776 26.2214 5.83333 26.3581 5.94727 26.4492C6.0612 26.5404 6.20931 26.5859 6.3916 26.5859ZM6.3916 30.1406C6.55111 30.1406 6.68213 30.0894 6.78467 29.9868C6.88721 29.8843 6.93848 29.7419 6.93848 29.5596V28.3975C6.93848 28.2152 6.88721 28.0785 6.78467 27.9873C6.68213 27.8962 6.55111 27.8506 6.3916 27.8506C6.20931 27.8506 6.06689 27.8962 5.96436 27.9873C5.86182 28.0785 5.81055 28.2152 5.81055 28.3975V29.5596C5.78776 29.7191 5.83333 29.8558 5.94727 29.9697C6.0612 30.0837 6.20931 30.1406 6.3916 30.1406ZM6.3916 5.59961C6.55111 5.59961 6.68213 5.54834 6.78467 5.4458C6.88721 5.34326 6.93848 5.21224 6.93848 5.05273V3.85645C6.93848 3.69694 6.88721 3.56592 6.78467 3.46338C6.68213 3.36084 6.55111 3.30957 6.3916 3.30957C6.20931 3.30957 6.06689 3.36084 5.96436 3.46338C5.86182 3.56592 5.81055 3.69694 5.81055 3.85645V5.05273C5.78776 5.21224 5.83333 5.34326 5.94727 5.4458C6.0612 5.54834 6.20931 5.59961 6.3916 5.59961ZM6.3916 9.12012C6.55111 9.12012 6.68213 9.07454 6.78467 8.9834C6.88721 8.89225 6.93848 8.75553 6.93848 8.57324V7.41113C6.93848 7.22884 6.88721 7.08643 6.78467 6.98389C6.68213 6.88135 6.55111 6.83008 6.3916 6.83008C6.20931 6.83008 6.06689 6.88135 5.96436 6.98389C5.86182 7.08643 5.81055 7.22884 5.81055 7.41113V8.57324C5.78776 8.70996 5.83333 8.83529 5.94727 8.94922C6.0612 9.06315 6.20931 9.12012 6.3916 9.12012ZM6.3916 12.6064C6.55111 12.6064 6.68213 12.5552 6.78467 12.4526C6.88721 12.3501 6.93848 12.2077 6.93848 12.0254V10.8633C6.93848 10.681 6.88721 10.5443 6.78467 10.4531C6.68213 10.362 6.55111 10.3164 6.3916 10.3164C6.20931 10.3164 6.06689 10.362 5.96436 10.4531C5.86182 10.5443 5.81055 10.681 5.81055 10.8633V12.0254C5.78776 12.2077 5.83333 12.3501 5.94727 12.4526C6.0612 12.5552 6.20931 12.6064 6.3916 12.6064ZM6.3916 16.127C6.55111 16.127 6.68213 16.0757 6.78467 15.9731C6.88721 15.8706 6.93848 15.7396 6.93848 15.5801V14.3838C6.93848 14.2243 6.88721 14.0933 6.78467 13.9907C6.68213 13.8882 6.55111 13.8369 6.3916 13.8369C6.20931 13.8369 6.06689 13.8882 5.96436 13.9907C5.86182 14.0933 5.81055 14.2243 5.81055 14.3838V15.5117C5.78776 15.6712 5.83333 15.8136 5.94727 15.939C6.0612 16.0643 6.20931 16.127 6.3916 16.127ZM6.3916 19.5791C6.55111 19.5791 6.68213 19.5335 6.78467 19.4424C6.88721 19.3512 6.93848 19.2145 6.93848 19.0322V17.8701C6.93848 17.6878 6.88721 17.5511 6.78467 17.46C6.68213 17.3688 6.55111 17.3232 6.3916 17.3232C6.20931 17.3232 6.06689 17.3688 5.96436 17.46C5.86182 17.5511 5.81055 17.6878 5.81055 17.8701V19.0322C5.78776 19.2145 5.83333 19.3512 5.94727 19.4424C6.0612 19.5335 6.20931 19.5791 6.3916 19.5791ZM9.84375 9.12012C10.026 9.12012 10.1628 9.07454 10.2539 8.9834C10.3451 8.89225 10.3906 8.75553 10.3906 8.57324V7.41113C10.3906 7.22884 10.3451 7.08643 10.2539 6.98389C10.1628 6.88135 10.026 6.83008 9.84375 6.83008C9.66146 6.83008 9.52474 6.88135 9.43359 6.98389C9.34245 7.08643 9.29688 7.22884 9.29688 7.41113V8.57324C9.29688 8.70996 9.34245 8.83529 9.43359 8.94922C9.52474 9.06315 9.66146 9.12012 9.84375 9.12012ZM9.84375 5.59961C10.026 5.59961 10.1628 5.54834 10.2539 5.4458C10.3451 5.34326 10.3906 5.21224 10.3906 5.05273V3.85645C10.3906 3.69694 10.3451 3.56592 10.2539 3.46338C10.1628 3.36084 10.026 3.30957 9.84375 3.30957C9.66146 3.30957 9.52474 3.36084 9.43359 3.46338C9.34245 3.56592 9.29688 3.69694 9.29688 3.85645V5.05273C9.29688 5.21224 9.34245 5.34326 9.43359 5.4458C9.52474 5.54834 9.66146 5.59961 9.84375 5.59961ZM9.84375 16.127C10.026 16.127 10.1628 16.0757 10.2539 15.9731C10.3451 15.8706 10.3906 15.7396 10.3906 15.5801V14.3838C10.3906 14.2243 10.3451 14.0933 10.2539 13.9907C10.1628 13.8882 10.026 13.8369 9.84375 13.8369C9.66146 13.8369 9.52474 13.8882 9.43359 13.9907C9.34245 14.0933 9.29688 14.2243 9.29688 14.3838V15.5117C9.29688 15.6712 9.34245 15.8136 9.43359 15.939C9.52474 16.0643 9.66146 16.127 9.84375 16.127ZM9.84375 12.6064C10.026 12.6064 10.1628 12.5552 10.2539 12.4526C10.3451 12.3501 10.3906 12.2077 10.3906 12.0254V10.8633C10.3906 10.681 10.3451 10.5443 10.2539 10.4531C10.1628 10.362 10.026 10.3164 9.84375 10.3164C9.66146 10.3164 9.52474 10.362 9.43359 10.4531C9.34245 10.5443 9.29688 10.681 9.29688 10.8633V12.0254C9.29688 12.2077 9.34245 12.3501 9.43359 12.4526C9.52474 12.5552 9.66146 12.6064 9.84375 12.6064ZM9.84375 19.5791C10.026 19.5791 10.1628 19.5335 10.2539 19.4424C10.3451 19.3512 10.3906 19.2145 10.3906 19.0322V17.8701C10.3906 17.6878 10.3451 17.5511 10.2539 17.46C10.1628 17.3688 10.026 17.3232 9.84375 17.3232C9.66146 17.3232 9.52474 17.3688 9.43359 17.46C9.34245 17.5511 9.29688 17.6878 9.29688 17.8701V19.0322C9.29688 19.2145 9.34245 19.3512 9.43359 19.4424C9.52474 19.5335 9.66146 19.5791 9.84375 19.5791ZM9.84375 23.1338C10.026 23.1338 10.1628 23.0825 10.2539 22.98C10.3451 22.8774 10.3906 22.7464 10.3906 22.5869V21.3906C10.3906 21.2311 10.3451 21.1001 10.2539 20.9976C10.1628 20.895 10.026 20.8438 9.84375 20.8438C9.66146 20.8438 9.52474 20.895 9.43359 20.9976C9.34245 21.1001 9.29688 21.2311 9.29688 21.3906V22.5869C9.29688 22.7236 9.34245 22.849 9.43359 22.9629C9.52474 23.0768 9.66146 23.1338 9.84375 23.1338ZM9.84375 26.5859C10.026 26.5859 10.1628 26.5404 10.2539 26.4492C10.3451 26.3581 10.3906 26.2214 10.3906 26.0391V24.877C10.3906 24.6947 10.3451 24.5522 10.2539 24.4497C10.1628 24.3472 10.026 24.2959 9.84375 24.2959C9.66146 24.2959 9.52474 24.3472 9.43359 24.4497C9.34245 24.5522 9.29688 24.6947 9.29688 24.877V26.0391C9.29688 26.2214 9.34245 26.3581 9.43359 26.4492C9.52474 26.5404 9.66146 26.5859 9.84375 26.5859ZM13.3643 12.6064C13.5465 12.6064 13.689 12.5552 13.7915 12.4526C13.894 12.3501 13.9453 12.2077 13.9453 12.0254V10.8633C13.9453 10.681 13.894 10.5443 13.7915 10.4531C13.689 10.362 13.5465 10.3164 13.3643 10.3164C13.2048 10.3164 13.0737 10.362 12.9712 10.4531C12.8687 10.5443 12.8174 10.681 12.8174 10.8633V12.0254C12.7946 12.2077 12.8402 12.3501 12.9541 12.4526C13.068 12.5552 13.2048 12.6064 13.3643 12.6064ZM13.3643 9.12012C13.5465 9.12012 13.689 9.07454 13.7915 8.9834C13.894 8.89225 13.9453 8.75553 13.9453 8.57324V7.41113C13.9453 7.22884 13.894 7.08643 13.7915 6.98389C13.689 6.88135 13.5465 6.83008 13.3643 6.83008C13.2048 6.83008 13.0737 6.88135 12.9712 6.98389C12.8687 7.08643 12.8174 7.22884 12.8174 7.41113V8.57324C12.7946 8.70996 12.8402 8.83529 12.9541 8.94922C13.068 9.06315 13.2048 9.12012 13.3643 9.12012ZM13.3643 5.59961C13.5465 5.59961 13.689 5.54834 13.7915 5.4458C13.894 5.34326 13.9453 5.21224 13.9453 5.05273V3.85645C13.9453 3.69694 13.894 3.56592 13.7915 3.46338C13.689 3.36084 13.5465 3.30957 13.3643 3.30957C13.2048 3.30957 13.0737 3.36084 12.9712 3.46338C12.8687 3.56592 12.8174 3.69694 12.8174 3.85645V5.05273C12.7946 5.21224 12.8402 5.34326 12.9541 5.4458C13.068 5.54834 13.2048 5.59961 13.3643 5.59961ZM13.3643 26.5859C13.5465 26.5859 13.689 26.5404 13.7915 26.4492C13.894 26.3581 13.9453 26.2214 13.9453 26.0391V24.877C13.9453 24.6947 13.894 24.5522 13.7915 24.4497C13.689 24.3472 13.5465 24.2959 13.3643 24.2959C13.2048 24.2959 13.0737 24.3472 12.9712 24.4497C12.8687 24.5522 12.8174 24.6947 12.8174 24.877V26.0391C12.7946 26.2214 12.8402 26.3581 12.9541 26.4492C13.068 26.5404 13.2048 26.5859 13.3643 26.5859ZM13.3643 23.1338C13.5465 23.1338 13.689 23.0825 13.7915 22.98C13.894 22.8774 13.9453 22.7464 13.9453 22.5869V21.3906C13.9453 21.2311 13.894 21.1001 13.7915 20.9976C13.689 20.895 13.5465 20.8438 13.3643 20.8438C13.2048 20.8438 13.0737 20.895 12.9712 20.9976C12.8687 21.1001 12.8174 21.2311 12.8174 21.3906V22.5869C12.7946 22.7236 12.8402 22.849 12.9541 22.9629C13.068 23.0768 13.2048 23.1338 13.3643 23.1338ZM13.3643 19.5791C13.5465 19.5791 13.689 19.5335 13.7915 19.4424C13.894 19.3512 13.9453 19.2145 13.9453 19.0322V17.8701C13.9453 17.6878 13.894 17.5511 13.7915 17.46C13.689 17.3688 13.5465 17.3232 13.3643 17.3232C13.2048 17.3232 13.0737 17.3688 12.9712 17.46C12.8687 17.5511 12.8174 17.6878 12.8174 17.8701V19.0322C12.7946 19.2145 12.8402 19.3512 12.9541 19.4424C13.068 19.5335 13.2048 19.5791 13.3643 19.5791ZM13.3643 16.127C13.5465 16.127 13.689 16.0757 13.7915 15.9731C13.894 15.8706 13.9453 15.7396 13.9453 15.5801V14.3838C13.9453 14.2243 13.894 14.0933 13.7915 13.9907C13.689 13.8882 13.5465 13.8369 13.3643 13.8369C13.2048 13.8369 13.0737 13.8882 12.9712 13.9907C12.8687 14.0933 12.8174 14.2243 12.8174 14.3838V15.5117C12.7946 15.6712 12.8402 15.8136 12.9541 15.939C13.068 16.0643 13.2048 16.127 13.3643 16.127ZM16.8506 9.12012C17.0101 9.12012 17.1411 9.07454 17.2437 8.9834C17.3462 8.89225 17.3975 8.75553 17.3975 8.57324V7.41113C17.3975 7.22884 17.3462 7.08643 17.2437 6.98389C17.1411 6.88135 17.0101 6.83008 16.8506 6.83008C16.6683 6.83008 16.5316 6.88135 16.4404 6.98389C16.3493 7.08643 16.3037 7.22884 16.3037 7.41113V8.57324C16.3037 8.70996 16.3493 8.83529 16.4404 8.94922C16.5316 9.06315 16.6683 9.12012 16.8506 9.12012ZM16.8506 5.59961C17.0101 5.59961 17.1411 5.54834 17.2437 5.4458C17.3462 5.34326 17.3975 5.21224 17.3975 5.05273V3.85645C17.3975 3.69694 17.3462 3.56592 17.2437 3.46338C17.1411 3.36084 17.0101 3.30957 16.8506 3.30957C16.6683 3.30957 16.5316 3.36084 16.4404 3.46338C16.3493 3.56592 16.3037 3.69694 16.3037 3.85645V5.05273C16.3037 5.21224 16.3493 5.34326 16.4404 5.4458C16.5316 5.54834 16.6683 5.59961 16.8506 5.59961Z" fill="#7FCA35"/>
</g>
<defs>
<clipPath id="clip0_2014_435">
<rect width="35" height="35" fill="white" transform="matrix(1 0 0 -1 0 35.9512)"/>
</clipPath>
</defs>
</svg>
