<svg width="12" height="13" viewBox="0 0 12 13" fill="none" xmlns="http://www.w3.org/2000/svg">
<path d="M11.6484 8.98438C11.8359 9.07812 11.9766 9.28906 11.9766 9.52344C11.9766 9.54688 11.9766 9.59375 11.9766 9.64062L11.4141 12.0781C11.3438 12.3359 11.1328 12.5 10.875 12.5C4.85156 12.5 0 7.64844 0 1.625C0 1.36719 0.164062 1.15625 0.421875 1.08594L2.85938 0.523438C2.90625 0.523438 2.95312 0.5 2.97656 0.5C3.21094 0.5 3.42188 0.640625 3.51562 0.851562L4.64062 3.47656C4.66406 3.54688 4.6875 3.61719 4.6875 3.6875C4.6875 3.875 4.59375 4.03906 4.47656 4.13281L3.04688 5.30469C3.91406 7.13281 5.36719 8.58594 7.19531 9.45312L8.36719 8.02344C8.46094 7.90625 8.625 7.8125 8.78906 7.8125C8.88281 7.8125 8.95312 7.83594 9.02344 7.85938L11.6484 8.98438Z" fill="#81B441"/>
</svg>
