<svg width="45" height="32" viewBox="0 0 45 32" fill="none" xmlns="http://www.w3.org/2000/svg">
<path d="M41.0938 12.6621C43.1445 13.6191 44.375 14.8496 44.375 15.875C44.375 16.9688 43.1445 18.1992 41.0938 19.1562C38.8379 20.25 35.8301 20.7969 32.8906 20.7969H13.3398C12.998 21.2754 12.5879 21.6172 12.1777 21.8906H26.3281C16.2793 24.0098 15.5957 31.1875 7.1875 31.1875V22.4375H6.09375V31.1875C4.24805 31.1875 2.8125 29.2734 2.8125 26.8125V22.4375C1.17188 22.4375 0.625 21.7539 0.625 20.7969V18.0625C0.625 17.1738 1.17188 16.4219 2.8125 16.4219V15.3281C1.17188 15.3281 0.625 14.6445 0.625 13.6875V10.9531C0.625 10.0645 1.17188 9.3125 2.8125 9.3125V4.9375C2.8125 2.54492 4.24805 0.5625 6.09375 0.5625V9.3125H7.1875V0.5625C15.5957 0.5625 16.2793 7.80859 26.3281 9.85938H12.1777C12.5879 10.2012 12.998 10.543 13.3398 10.9531H32.8906C35.8301 10.9531 38.8379 11.5684 41.0938 12.6621ZM33.9844 18.6094C36.1035 18.6094 36.1035 13.1406 33.9844 13.1406C33.6426 13.1406 33.4375 13.4141 33.4375 13.6875V18.0625C33.4375 18.4043 33.6426 18.6094 33.9844 18.6094Z" fill="#7FCA35"/>
</svg>
