<svg width="43" height="42" viewBox="0 0 43 42" fill="none" xmlns="http://www.w3.org/2000/svg">
<g clip-path="url(#clip0_16_4411)">
<path d="M31.5985 25.7994C31.7547 25.7994 31.898 25.7408 32.0282 25.6236C32.1584 25.5064 32.2235 25.3437 32.2235 25.1353V19.5489C32.2235 18.8978 32.0542 18.2988 31.7157 17.7519C31.3771 17.2049 30.9083 16.7882 30.3093 16.5017L25.3479 14.275C25.2177 14.2229 25.12 14.1317 25.0549 14.0015C24.9898 13.8713 24.9573 13.7411 24.9573 13.6109V11.931C25.5563 11.4622 26.0381 10.8632 26.4027 10.134C26.7673 9.40477 26.9496 8.62345 26.9496 7.79004V5.13356C26.9496 4.06576 26.8324 3.19979 26.598 2.53568C26.3636 1.87155 26.2464 1.53949 26.2464 1.53949C26.1162 1.43532 26.0055 1.34416 25.9144 1.26603C25.8232 1.1879 25.7125 1.14883 25.5823 1.14883H20.5428C20.2303 1.14883 19.9308 1.20092 19.6443 1.3051C19.3578 1.40927 19.0974 1.53949 18.863 1.69576C18.863 1.69576 18.8369 1.69576 18.7848 1.69576C18.3421 1.74784 17.8082 1.98875 17.1831 2.41848C16.5581 2.8482 16.2456 3.62301 16.2456 4.7429V7.79004C16.2456 8.62345 16.4279 9.40477 16.7925 10.134C17.1571 10.8632 17.6389 11.4622 18.2379 11.931V13.6109C18.2379 13.7411 18.1989 13.8713 18.1207 14.0015C18.0426 14.1317 17.9514 14.2229 17.8473 14.275L12.8859 16.5017C12.2869 16.7882 11.8116 17.1984 11.46 17.7323C11.1084 18.2662 10.9326 18.8717 10.9326 19.5489V25.1353C10.9326 25.3176 10.9912 25.4739 11.1084 25.6041C11.2256 25.7343 11.3884 25.7994 11.5967 25.7994C11.753 25.7994 11.8962 25.7408 12.0264 25.6236C12.1567 25.5064 12.2218 25.3437 12.2218 25.1353V23.3773L14.2923 24.1977V26.8152L12.5343 27.0886C12.1957 27.1147 11.8962 27.2384 11.6358 27.4597C11.3753 27.6811 11.206 27.9741 11.1279 28.3387C10.9977 28.6773 10.9847 29.0094 11.0889 29.3349C11.193 29.6605 11.3623 29.9404 11.5967 30.1748L15.347 33.808L14.4876 38.9256C14.4355 39.2642 14.4681 39.5897 14.5853 39.9022C14.7024 40.2148 14.9043 40.4752 15.1908 40.6836C15.4773 40.8659 15.7898 40.9766 16.1284 41.0156C16.4669 41.0547 16.7925 40.9961 17.105 40.8398L21.7539 38.4177L26.4027 40.8398C26.5069 40.918 26.6371 40.9766 26.7934 41.0156C26.9496 41.0547 27.1059 41.0742 27.2621 41.0742C27.4705 41.0742 27.6593 41.0482 27.8286 40.9961C27.9979 40.944 28.1607 40.8659 28.3169 40.7617C28.6034 40.5533 28.8118 40.2864 28.942 39.9608C29.0722 39.6353 29.0982 39.3163 29.0201 39.0037L28.1607 33.8861L31.911 30.253C32.1454 30.0186 32.3017 29.7386 32.3798 29.413C32.4579 29.0875 32.4579 28.7554 32.3798 28.4169C32.2756 28.1043 32.0933 27.8374 31.8329 27.616C31.5724 27.3946 31.2729 27.2449 30.9343 27.1667L29.1764 26.8933V24.354L31.2859 23.9633V25.1353C31.1036 25.3176 31.0711 25.4739 31.1883 25.6041C31.3055 25.7343 31.4422 25.7994 31.5985 25.7994ZM17.4957 4.7429C17.4957 4.43037 17.5412 4.16342 17.6324 3.94205C17.7235 3.72067 17.8733 3.53186 18.0817 3.37559C18.1077 3.45372 18.1468 3.53186 18.1989 3.60999C18.2509 3.68812 18.3421 3.72718 18.4723 3.72718C18.6286 3.75323 18.7914 3.72718 18.9606 3.64905C19.1299 3.57092 19.2276 3.45372 19.2536 3.29746C19.3318 3.03702 19.488 2.82867 19.7224 2.67241C19.9568 2.51614 20.2303 2.43801 20.5428 2.43801H25.1917C25.2698 2.62032 25.3609 2.91982 25.4651 3.33652C25.5693 3.75323 25.6344 4.22202 25.6604 4.7429C25.2177 4.89916 24.5015 5.02938 23.5118 5.13356C22.5221 5.23774 21.4023 5.02938 20.1521 4.5085C19.9959 4.45642 19.8461 4.45642 19.7029 4.5085C19.5596 4.56059 19.4359 4.63873 19.3318 4.7429C19.3318 4.7429 19.182 4.92521 18.8825 5.28982C18.583 5.65444 18.1468 5.97999 17.5738 6.26647L17.4957 4.7429ZM17.4957 7.79004V7.63378C18.1468 7.42543 18.6872 7.13894 19.1169 6.77433C19.5466 6.40971 19.8657 6.11021 20.074 5.87581C21.272 6.31856 22.3529 6.49435 23.3165 6.4032C24.2801 6.31205 25.0354 6.18834 25.5823 6.03207V7.79004C25.5823 8.90993 25.1851 9.86705 24.3908 10.6614C23.5965 11.4557 22.6393 11.8529 21.5195 11.8529C20.4256 11.8529 19.4815 11.4557 18.6872 10.6614C17.8928 9.86705 17.4957 8.90993 17.4957 7.79004ZM24.801 15.4079C24.5926 16.1111 24.1955 16.6971 23.6095 17.1659C23.0235 17.6347 22.3529 17.8691 21.5976 17.8691C20.8423 17.8691 20.1652 17.6412 19.5662 17.1854C18.9671 16.7296 18.5504 16.1632 18.316 15.486H18.3942C18.7588 15.3037 19.0388 15.0498 19.2341 14.7242C19.4294 14.3987 19.5271 14.0666 19.5271 13.7281V12.7514C19.8396 12.8816 20.1717 12.9793 20.5233 13.0444C20.8749 13.1095 21.233 13.1421 21.5976 13.1421C21.9622 13.1421 22.3203 13.1095 22.6719 13.0444C23.0235 12.9793 23.3556 12.8816 23.6681 12.7514V13.7281C23.642 14.0406 23.7332 14.3531 23.9415 14.6656C24.1499 14.9782 24.4364 15.2256 24.801 15.4079ZM30.4656 28.3387C30.5958 28.3387 30.6999 28.3778 30.7781 28.4559C30.8562 28.5341 30.9083 28.6382 30.9343 28.7684C30.9864 28.8726 30.9929 28.9703 30.9539 29.0614C30.9148 29.1526 30.8562 29.2372 30.7781 29.3154L26.8715 33.1438C26.7934 33.222 26.7348 33.3066 26.6957 33.3978C26.6566 33.4889 26.6631 33.5996 26.7152 33.7298L27.6528 39.16C27.6528 39.2642 27.6333 39.3618 27.5942 39.453C27.5551 39.5441 27.4965 39.6288 27.4184 39.7069C27.3403 39.785 27.2491 39.8306 27.1449 39.8436C27.0408 39.8567 26.9236 39.8371 26.7934 39.785L21.832 37.2458C21.7799 37.1937 21.7343 37.1676 21.6953 37.1676C21.6562 37.1676 21.5976 37.1676 21.5195 37.1676C21.4413 37.1676 21.3892 37.1676 21.3632 37.1676C21.3371 37.1676 21.2851 37.1937 21.2069 37.2458L16.3237 39.785C16.2456 39.8371 16.1479 39.8567 16.0307 39.8436C15.9135 39.8306 15.7898 39.785 15.6596 39.7069C15.5814 39.6288 15.5228 39.5441 15.4838 39.453C15.4447 39.3618 15.4252 39.2642 15.4252 39.16L16.4018 33.7298C16.4018 33.5996 16.3953 33.4889 16.3823 33.3978C16.3693 33.3066 16.3237 33.222 16.2456 33.1438L12.2999 29.3154C12.2218 29.2372 12.1697 29.1461 12.1436 29.0419C12.1176 28.9377 12.1176 28.8466 12.1436 28.7684C12.1957 28.6382 12.2608 28.5471 12.339 28.495C12.4171 28.4429 12.5082 28.3908 12.6124 28.3387L18.0817 27.5574C18.1858 27.5574 18.277 27.5249 18.3551 27.4597C18.4332 27.3946 18.4984 27.323 18.5504 27.2449L21.0116 22.2835C21.0637 22.1533 21.1418 22.0621 21.246 22.01C21.3502 21.958 21.4413 21.9319 21.5195 21.9319C21.6236 21.9319 21.7213 21.958 21.8125 22.01C21.9036 22.0621 21.9622 22.1533 21.9882 22.2835L24.4885 27.2449C24.5145 27.323 24.5666 27.3946 24.6447 27.4597C24.7229 27.5249 24.827 27.5574 24.9573 27.5574L30.4656 28.3387ZM30.9343 22.6742L28.8639 23.0648V21.1506C28.8639 20.9943 28.8053 20.8511 28.6881 20.7209C28.5709 20.5906 28.4211 20.5255 28.2388 20.5255C28.0825 20.5255 27.9328 20.5776 27.7895 20.6818C27.6463 20.786 27.5747 20.9422 27.5747 21.1506V23.8071V26.6589L25.5042 26.3464L23.1993 21.6975C23.043 21.385 22.8151 21.1376 22.5156 20.9553C22.2161 20.773 21.9101 20.6818 21.5976 20.6818C21.233 20.6818 20.9009 20.773 20.6014 20.9553C20.3019 21.1376 20.1001 21.385 19.9959 21.6975L17.6519 26.3464L15.5814 26.6589V23.8071V21.1506C15.5814 20.9943 15.5293 20.8511 15.4252 20.7209C15.321 20.5906 15.1647 20.5255 14.9564 20.5255C14.748 20.5255 14.5853 20.5776 14.4681 20.6818C14.3509 20.786 14.2923 20.9422 14.2923 21.1506V22.9086L12.2218 22.1272V19.5489C12.2218 19.1582 12.3324 18.7936 12.5538 18.455C12.7752 18.1165 13.0682 17.8691 13.4328 17.7128L17.2613 15.9548C17.5998 16.8664 18.1663 17.6281 18.9606 18.2402C19.755 18.8522 20.66 19.1582 21.6757 19.1582C22.6654 19.1582 23.5639 18.8652 24.3713 18.2792C25.1786 17.6933 25.7516 16.9184 26.0902 15.9548L29.9186 17.7128C30.2832 17.8691 30.5762 18.1165 30.7976 18.455C31.019 18.7936 31.1297 19.1582 31.1297 19.5489L30.9343 22.6742ZM13.1203 34.2767C12.9901 34.1465 12.8403 34.0814 12.671 34.0814C12.5017 34.0814 12.352 34.1465 12.2218 34.2767L10.9326 35.5659C10.8545 35.6441 10.8024 35.7222 10.7763 35.8003C10.7503 35.8784 10.7503 35.9826 10.7763 36.1128L11.4404 39.7069C11.4404 39.759 11.4339 39.7981 11.4209 39.8241C11.4079 39.8502 11.3884 39.8632 11.3623 39.8632C11.3623 39.8632 11.3428 39.8762 11.3037 39.9022C11.2646 39.9283 11.2321 39.9153 11.206 39.8632L7.92451 38.1833C7.84638 38.1573 7.74871 38.1443 7.63152 38.1443C7.51432 38.1443 7.41665 38.1573 7.33852 38.1833L4.05698 39.8632C4.03094 39.9153 3.99838 39.9283 3.95932 39.9022C3.92025 39.8762 3.90072 39.8632 3.90072 39.8632C3.90072 39.8632 3.8877 39.8502 3.86165 39.8241C3.83561 39.7981 3.82259 39.759 3.82259 39.7069L4.48671 36.1128C4.48671 35.9826 4.4802 35.8784 4.46717 35.8003C4.45415 35.7222 4.39555 35.6441 4.29138 35.5659L1.67396 32.9876C1.62187 32.9615 1.59583 32.929 1.59583 32.8899C1.59583 32.8508 1.59583 32.8313 1.59583 32.8313C1.59583 32.7792 1.60885 32.7532 1.63489 32.7532C1.66094 32.7532 1.7 32.7532 1.75209 32.7532L5.42429 32.2063C5.55451 32.2063 5.65869 32.1737 5.73682 32.1086C5.81495 32.0435 5.86704 31.9588 5.89308 31.8547L7.49478 28.5731C7.46874 28.4689 7.46223 28.4038 7.47525 28.3778C7.48827 28.3517 7.49478 28.3387 7.49478 28.3387C7.49478 28.3387 7.51432 28.3452 7.55338 28.3583C7.59245 28.3713 7.625 28.3908 7.65105 28.4169L9.09649 31.3077C9.17462 31.464 9.29833 31.5682 9.46761 31.6203C9.6369 31.6724 9.78665 31.6724 9.91687 31.6203C10.0731 31.5421 10.1773 31.4184 10.2294 31.2491C10.2815 31.0799 10.2815 30.9431 10.2294 30.8389L8.78396 27.9481C8.67978 27.7137 8.5105 27.5249 8.2761 27.3816C8.04171 27.2384 7.78127 27.1667 7.49478 27.1667C7.23434 27.1667 6.98693 27.2384 6.75253 27.3816C6.51814 27.5249 6.34885 27.7137 6.24467 27.9481L4.7211 30.9952L1.36143 31.464C1.07495 31.5161 0.834043 31.6333 0.638713 31.8156C0.443383 31.9979 0.306653 32.2063 0.228521 32.4406C0.150389 32.675 0.150389 32.9225 0.228521 33.1829C0.306653 33.4433 0.436872 33.6777 0.61918 33.8861L3.04127 36.191L2.45528 39.4725C2.42923 39.759 2.4683 40.0194 2.57248 40.2538C2.67665 40.4882 2.83292 40.6836 3.04127 40.8398C3.14544 40.918 3.27566 40.9766 3.43193 41.0156C3.58819 41.0547 3.71841 41.0742 3.82259 41.0742C3.95281 41.0742 4.07 41.0547 4.17418 41.0156C4.27836 40.9766 4.38253 40.944 4.48671 40.918L7.41665 39.3163L10.3857 40.918C10.6201 41.0221 10.874 41.0742 11.1474 41.0742C11.4209 41.0742 11.6748 40.9961 11.9092 40.8398C12.1436 40.6836 12.3064 40.4752 12.3976 40.2148C12.4887 39.9543 12.5082 39.7069 12.4562 39.4725L11.9092 36.191L12.964 35.1362C13.1463 35.032 13.244 34.8888 13.257 34.7065C13.27 34.5242 13.2245 34.3809 13.1203 34.2767ZM42.8885 32.3625C42.8104 32.1281 42.6606 31.9198 42.4393 31.7375C42.2179 31.5552 41.99 31.438 41.7556 31.3859L38.3959 30.9171L36.8724 27.8699C36.7421 27.6355 36.5664 27.4467 36.345 27.3035C36.1236 27.1602 35.8697 27.0886 35.5832 27.0886C35.2967 27.0886 35.0428 27.1602 34.8214 27.3035C34.6 27.4467 34.4242 27.6355 34.294 27.8699L32.8876 30.7608C32.8095 30.9171 32.803 31.0799 32.8681 31.2491C32.9332 31.4184 33.0439 31.5161 33.2002 31.5421C33.3564 31.6203 33.5192 31.6268 33.6885 31.5617C33.8578 31.4966 33.9554 31.3859 33.9815 31.2296L35.4269 28.3387C35.4269 28.3127 35.4465 28.2931 35.4855 28.2801C35.5246 28.2671 35.5571 28.2606 35.5832 28.2606C35.6353 28.2606 35.6678 28.2671 35.6809 28.2801C35.6939 28.2931 35.7134 28.3127 35.7395 28.3387L37.3412 31.6203C37.3932 31.6984 37.4584 31.77 37.5365 31.8351C37.6146 31.9002 37.7188 31.9328 37.849 31.9328L41.5212 32.5188C41.5473 32.5188 41.5798 32.5318 41.6189 32.5578C41.6579 32.5839 41.6775 32.5969 41.6775 32.5969C41.6775 32.623 41.671 32.6425 41.6579 32.6555C41.6449 32.6685 41.6254 32.7011 41.5993 32.7532L38.9429 35.2925C38.8647 35.3966 38.8126 35.4878 38.7866 35.5659C38.7606 35.6441 38.7606 35.7482 38.7866 35.8784L39.4507 39.4725C39.4507 39.5246 39.4442 39.5637 39.4312 39.5897C39.4182 39.6158 39.3856 39.6288 39.3335 39.6288C39.3335 39.6288 39.3205 39.6418 39.2945 39.6678C39.2684 39.6939 39.2293 39.6809 39.1773 39.6288L35.8957 37.9489C35.8176 37.9229 35.7264 37.9099 35.6223 37.9099C35.5181 37.9099 35.4269 37.9229 35.3488 37.9489L32.0673 39.6288C32.0412 39.6809 32.0087 39.6939 31.9696 39.6678C31.9305 39.6418 31.911 39.6288 31.911 39.6288C31.911 39.6288 31.898 39.6158 31.8719 39.5897C31.8459 39.5637 31.8329 39.5246 31.8329 39.4725L32.4579 35.8784C32.4579 35.7482 32.4514 35.6441 32.4384 35.5659C32.4254 35.4878 32.3798 35.3966 32.3017 35.2925L31.0125 34.0424C30.9083 33.9121 30.7716 33.847 30.6023 33.847C30.433 33.847 30.2832 33.9121 30.153 34.0424C30.0228 34.1465 29.9577 34.2898 29.9577 34.4721C29.9577 34.6544 30.0228 34.7976 30.153 34.9018L31.2078 35.9566L30.6218 39.2381C30.5958 39.5246 30.6348 39.785 30.739 40.0194C30.8432 40.2538 30.9995 40.4492 31.2078 40.6054C31.4422 40.7617 31.6896 40.8528 31.9501 40.8789C32.2105 40.9049 32.4579 40.8398 32.6923 40.6836L35.6613 39.0819L38.6303 40.6836C38.7606 40.7096 38.8712 40.7422 38.9624 40.7812C39.0536 40.8203 39.1512 40.8398 39.2554 40.8398C39.4377 40.8398 39.5874 40.8203 39.7046 40.7812C39.8218 40.7422 39.9456 40.6836 40.0758 40.6054C40.3102 40.4492 40.4729 40.2408 40.5641 39.9804C40.6553 39.7199 40.6748 39.4725 40.6227 39.2381L40.0758 35.9566L42.4588 33.6126C42.6671 33.5345 42.8104 33.3717 42.8885 33.1243C42.9667 32.8769 42.9667 32.623 42.8885 32.3625Z" fill="#66A22A"/>
</g>
<defs>
<clipPath id="clip0_16_4411">
<rect width="42.66" height="41" fill="white" transform="matrix(1 0 0 -1 0.169922 41.6504)"/>
</clipPath>
</defs>
</svg>
