<svg width="34" height="39" viewBox="0 0 34 39" fill="none" xmlns="http://www.w3.org/2000/svg">
<path d="M29.9922 5.98633C28.3255 5.98633 26.7109 5.69987 25.1484 5.12695C23.5859 4.58008 22.2057 3.96159 21.0078 3.27148C19.8099 2.58138 18.8594 1.96289 18.1562 1.41602C17.4271 0.843098 17.0625 0.556641 17.0625 0.556641C17.0625 0.556641 16.6979 0.830078 15.9688 1.37695C15.2656 1.94987 14.3151 2.56836 13.1172 3.23242C11.9193 3.89648 10.5391 4.51497 8.97656 5.08789C7.41406 5.63477 5.79948 5.9082 4.13281 5.9082C3.0651 5.9082 2.19271 5.8431 1.51562 5.71289C0.838542 5.58268 0.5 5.51758 0.5 5.51758V16.1426C0.5 17.2103 0.578125 18.265 0.734375 19.3066C0.890625 20.3483 1.13151 21.3704 1.45703 22.373C1.78255 23.3757 2.17969 24.3587 2.64844 25.3223C3.11719 26.2858 3.66406 27.2103 4.28906 28.0957C4.9401 28.9811 5.68229 29.9186 6.51562 30.9082C7.34896 31.8978 8.27995 32.8678 9.30859 33.8184C10.3372 34.7689 11.4766 35.6738 12.7266 36.5332C13.9505 37.3665 15.2917 38.0827 16.75 38.6816L17.0625 38.7598L17.4141 38.5645C18.8203 38.0176 20.1484 37.3145 21.3984 36.4551C22.6224 35.6217 23.7552 34.7298 24.7969 33.7793C25.8385 32.8288 26.776 31.8587 27.6094 30.8691C28.4688 29.8535 29.2109 28.903 29.8359 28.0176C30.4609 27.1322 31.0208 26.2207 31.5156 25.2832C31.9844 24.3457 32.375 23.3691 32.6875 22.3535C33 21.3379 33.2474 20.3092 33.4297 19.2676C33.5859 18.2259 33.6641 17.1582 33.6641 16.0645V5.5957C33.638 5.5957 33.2474 5.66081 32.4922 5.79102C31.737 5.92122 30.9036 5.98633 29.9922 5.98633ZM30.1484 7.62695C30.513 7.62695 30.8646 7.60742 31.2031 7.56836C31.5417 7.5293 31.8672 7.49674 32.1797 7.4707V16.0645C32.1797 16.5592 32.1602 17.041 32.1211 17.5098C32.082 17.9785 32.0365 18.4473 31.9844 18.916H17.8047V3.17383C18.3255 3.56445 19.0156 4.00716 19.875 4.50195C20.7083 5.02279 21.6589 5.51107 22.7266 5.9668C23.7943 6.42253 24.9661 6.81966 26.2422 7.1582C27.4922 7.4707 28.7943 7.62695 30.1484 7.62695ZM2.10156 7.4707C2.4401 7.49674 2.77214 7.51628 3.09766 7.5293C3.42318 7.54232 3.76823 7.57487 4.13281 7.62695C5.46094 7.62695 6.73698 7.4707 7.96094 7.1582C9.1849 6.87174 10.3177 6.50716 11.3594 6.06445C12.401 5.62175 13.3385 5.153 14.1719 4.6582C15.0052 4.16341 15.6953 3.7207 16.2422 3.33008V18.916H2.33594C2.25781 18.4473 2.19922 17.9785 2.16016 17.5098C2.12109 17.041 2.10156 16.5592 2.10156 16.0645V7.4707ZM5.69531 27.1191C4.9401 26.1035 4.30859 25.0358 3.80078 23.916C3.29297 22.7962 2.89583 21.6504 2.60938 20.4785H16.2422V36.6504C15.0703 36.0775 13.9635 35.4004 12.9219 34.6191C11.8802 33.8639 10.9167 33.0566 10.0312 32.1973C9.14583 31.3379 8.33854 30.4785 7.60938 29.6191C6.88021 28.7337 6.24219 27.9004 5.69531 27.1191ZM28.5859 27.1191C28.0391 27.9264 27.388 28.7728 26.6328 29.6582C25.9036 30.5436 25.0833 31.416 24.1719 32.2754C23.2604 33.1348 22.2708 33.9551 21.2031 34.7363C20.1354 35.5176 19.0026 36.1947 17.8047 36.7676V20.4785H31.6719C31.3854 21.6504 30.9883 22.7962 30.4805 23.916C29.9727 25.0358 29.3411 26.1035 28.5859 27.1191Z" fill="#66A22A"/>
</svg>
