<svg width="35" height="36" viewBox="0 0 35 36" fill="none" xmlns="http://www.w3.org/2000/svg">
<path d="M29.7705 17.5625V15.8193C29.7705 15.751 29.7591 15.6826 29.7363 15.6143C29.7135 15.5459 29.6908 15.4889 29.668 15.4434L26.1475 8.43652C26.0791 8.27702 25.9766 8.15739 25.8398 8.07764C25.7031 7.99788 25.555 7.95801 25.3955 7.95801H4.375C4.21549 7.95801 4.06738 7.99788 3.93066 8.07764C3.79395 8.15739 3.68001 8.27702 3.58887 8.43652L0.102539 15.4434C0.0797526 15.4889 0.0569661 15.5459 0.0341797 15.6143C0.0113932 15.6826 0 15.751 0 15.8193V17.5625C0 18.2917 0.159505 18.9582 0.478516 19.562C0.797526 20.1659 1.21908 20.6729 1.74316 21.083V32.4648H0.888672C0.638021 32.4648 0.427246 32.5503 0.256348 32.7212C0.0854492 32.8921 0 33.0915 0 33.3193C0 33.57 0.0854492 33.7808 0.256348 33.9517C0.427246 34.1226 0.638021 34.208 0.888672 34.208H28.8818C29.1325 34.208 29.3433 34.1226 29.5142 33.9517C29.6851 33.7808 29.7705 33.57 29.7705 33.3193C29.7705 33.0915 29.6851 32.8921 29.5142 32.7212C29.3433 32.5503 29.1325 32.4648 28.8818 32.4648H27.9932V21.083C28.54 20.6729 28.973 20.1659 29.292 19.562C29.611 18.9582 29.7705 18.2917 29.7705 17.5625ZM18.3887 20.1943C17.6595 20.1943 17.0386 19.938 16.5259 19.4253C16.0132 18.9126 15.7568 18.2917 15.7568 17.5625V16.708H21.0205V17.5625C21.0205 18.2917 20.7642 18.9126 20.2515 19.4253C19.7388 19.938 19.1178 20.1943 18.3887 20.1943ZM1.74316 17.5625V16.708H7.00684V17.5625C7.00684 18.2917 6.75049 18.9126 6.23779 19.4253C5.7251 19.938 5.10417 20.1943 4.375 20.1943C3.64583 20.1943 3.0249 19.938 2.51221 19.4253C1.99951 18.9126 1.74316 18.2917 1.74316 17.5625ZM14.0137 9.70117V14.9648H8.98926L10.3223 9.70117H14.0137ZM19.4482 9.70117L20.7471 14.9648H15.7568V9.70117H19.4482ZM8.75 16.708H14.0137V17.5625C14.0137 18.2917 13.7573 18.9126 13.2446 19.4253C12.7319 19.938 12.111 20.1943 11.3818 20.1943C10.6527 20.1943 10.0317 19.938 9.51904 19.4253C9.00635 18.9126 8.75 18.2917 8.75 17.5625V16.708ZM22.7637 16.708H27.9932V17.5625C27.9932 18.2917 27.7368 18.9126 27.2241 19.4253C26.7114 19.938 26.1019 20.1943 25.3955 20.1943C24.6663 20.1943 24.0454 19.938 23.5327 19.4253C23.02 18.9126 22.7637 18.2917 22.7637 17.5625V16.708ZM27.4805 14.9648H22.5586L21.2598 9.70117H24.8486L27.4805 14.9648ZM4.92188 9.70117H8.51074L7.21191 14.9648H2.29004L4.92188 9.70117ZM3.52051 21.8691C3.65723 21.8919 3.79964 21.909 3.94775 21.9204C4.09587 21.9318 4.23828 21.9375 4.375 21.9375C5.10417 21.9375 5.77067 21.778 6.37451 21.459C6.97835 21.14 7.48535 20.7184 7.89551 20.1943C8.28288 20.7184 8.78418 21.14 9.39941 21.459C10.0146 21.778 10.6755 21.9375 11.3818 21.9375C12.0882 21.9375 12.749 21.778 13.3643 21.459C13.9795 21.14 14.4808 20.7184 14.8682 20.1943C15.1872 20.6273 15.5745 20.9862 16.0303 21.271C16.486 21.5558 16.9759 21.7552 17.5 21.8691V32.4648H3.52051V21.8691ZM26.25 32.4648H19.2432V21.8691C19.79 21.7552 20.2856 21.5558 20.73 21.271C21.1743 20.9862 21.556 20.6273 21.875 20.1943C22.2852 20.7184 22.7922 21.14 23.396 21.459C23.9998 21.778 24.6663 21.9375 25.3955 21.9375C25.5322 21.9375 25.6746 21.9318 25.8228 21.9204C25.9709 21.909 26.1133 21.8919 26.25 21.8691V32.4648ZM22.7637 26.3125C22.7637 26.5632 22.6782 26.7739 22.5073 26.9448C22.3364 27.1157 22.1257 27.2012 21.875 27.2012C21.6471 27.2012 21.4478 27.1157 21.2769 26.9448C21.106 26.7739 21.0205 26.5632 21.0205 26.3125C21.0205 26.0846 21.106 25.8853 21.2769 25.7144C21.4478 25.5435 21.6471 25.458 21.875 25.458C22.1257 25.458 22.3364 25.5435 22.5073 25.7144C22.6782 25.8853 22.7637 26.0846 22.7637 26.3125ZM6.11816 27.2012C6.00423 27.2012 5.896 27.1784 5.79346 27.1328C5.69092 27.0872 5.59408 27.0303 5.50293 26.9619C5.34342 26.7796 5.26367 26.5688 5.26367 26.3296C5.26367 26.0903 5.34342 25.8796 5.50293 25.6973L7.24609 23.9541C7.42839 23.7946 7.63916 23.7148 7.87842 23.7148C8.11768 23.7148 8.32845 23.7946 8.51074 23.9541C8.67025 24.1364 8.75 24.3472 8.75 24.5864C8.75 24.8257 8.67025 25.0251 8.51074 25.1846L6.76758 26.9619C6.67643 27.0303 6.57389 27.0872 6.45996 27.1328C6.34603 27.1784 6.2321 27.2012 6.11816 27.2012ZM7.89551 30.6875C7.78158 30.6875 7.66764 30.6704 7.55371 30.6362C7.43978 30.6021 7.33724 30.5394 7.24609 30.4482C7.08659 30.266 7.00684 30.0552 7.00684 29.8159C7.00684 29.5767 7.08659 29.3773 7.24609 29.2178L12.5098 23.9541C12.6921 23.7946 12.9028 23.7148 13.1421 23.7148C13.3813 23.7148 13.5807 23.7946 13.7402 23.9541C13.9225 24.1364 14.0137 24.3472 14.0137 24.5864C14.0137 24.8257 13.9225 25.0251 13.7402 25.1846L8.51074 30.4482C8.4196 30.5394 8.32275 30.6021 8.22021 30.6362C8.11768 30.6704 8.00944 30.6875 7.89551 30.6875ZM13.125 30.6875C13.0111 30.6875 12.9028 30.6704 12.8003 30.6362C12.6978 30.6021 12.6009 30.5394 12.5098 30.4482C12.3503 30.266 12.2705 30.0552 12.2705 29.8159C12.2705 29.5767 12.3503 29.3773 12.5098 29.2178L14.2529 27.4404C14.4352 27.2809 14.646 27.2012 14.8853 27.2012C15.1245 27.2012 15.3353 27.2809 15.5176 27.4404C15.6771 27.6227 15.7568 27.8335 15.7568 28.0728C15.7568 28.312 15.6771 28.5228 15.5176 28.7051L13.7402 30.4482C13.6719 30.5394 13.5807 30.6021 13.4668 30.6362C13.3529 30.6704 13.2389 30.6875 13.125 30.6875Z" fill="#7FCA35"/>
</svg>
