<svg width="39" height="41" viewBox="0 0 39 41" fill="none" xmlns="http://www.w3.org/2000/svg">
<path d="M12.9609 23.7051L11.9453 24.6816C11.8672 24.7598 11.8086 24.8444 11.7695 24.9355C11.7305 25.0267 11.7109 25.1113 11.7109 25.1895V25.6191C11.7109 25.8275 11.7826 26.0033 11.9258 26.1465C12.069 26.2897 12.2448 26.3613 12.4531 26.3613H18.4688C18.6771 26.3613 18.8529 26.2897 18.9961 26.1465C19.1393 26.0033 19.2109 25.8275 19.2109 25.6191V25.0723C19.2109 24.89 19.1393 24.7272 18.9961 24.584C18.8529 24.4408 18.6771 24.3691 18.4688 24.3691H15.1484L15.2266 24.252C16.3203 23.2103 17.2122 22.2402 17.9023 21.3418C18.5924 20.4434 18.9375 19.4603 18.9375 18.3926C18.9375 17.5332 18.651 16.7454 18.0781 16.0293C17.5052 15.3132 16.5938 14.9551 15.3438 14.9551C14.7969 14.9551 14.263 15.0397 13.7422 15.209C13.2214 15.3783 12.7526 15.6191 12.3359 15.9316C12.2057 16.0358 12.1211 16.1725 12.082 16.3418C12.043 16.5111 12.0495 16.6738 12.1016 16.8301L12.2969 17.2207C12.349 17.3249 12.4141 17.4095 12.4922 17.4746C12.5703 17.5397 12.6615 17.5853 12.7656 17.6113C12.8698 17.6634 12.974 17.6764 13.0781 17.6504C13.1823 17.6243 13.2865 17.5853 13.3906 17.5332C13.651 17.3249 13.9245 17.1751 14.2109 17.084C14.4974 16.9928 14.7839 16.9473 15.0703 16.9473C15.6172 16.9473 16.0273 17.084 16.3008 17.3574C16.5742 17.6309 16.7109 18.028 16.7109 18.5488C16.6849 19.278 16.3659 20.0202 15.7539 20.7754C15.1419 21.5306 14.2109 22.5072 12.9609 23.7051ZM23.8984 15.1113C23.8984 15.1113 23.8919 15.1113 23.8789 15.1113C23.8659 15.1113 23.8594 15.1113 23.8594 15.1113H23.625C23.4948 15.1113 23.3776 15.1374 23.2734 15.1895C23.1693 15.2415 23.0911 15.3197 23.0391 15.4238L18.5469 21.8691C18.4948 21.9212 18.4557 21.9863 18.4297 22.0645C18.4036 22.1426 18.3906 22.2077 18.3906 22.2598V22.8066C18.3906 22.9889 18.4622 23.1517 18.6055 23.2949C18.7487 23.4382 18.9245 23.5098 19.1328 23.5098H23.2344V25.6191C23.2344 25.8275 23.306 26.0033 23.4492 26.1465C23.5924 26.2897 23.7682 26.3613 23.9766 26.3613H24.6797C24.862 26.3613 25.0247 26.2897 25.168 26.1465C25.3112 26.0033 25.3828 25.8275 25.3828 25.6191V23.5098H26.125C26.3333 23.5098 26.5091 23.4382 26.6523 23.2949C26.7956 23.1517 26.8672 22.9889 26.8672 22.8066V22.2988C26.8672 22.1165 26.7956 21.9538 26.6523 21.8105C26.5091 21.6673 26.3333 21.5957 26.125 21.5957H25.3828V15.8535C25.3828 15.6452 25.3112 15.4694 25.168 15.3262C25.0247 15.1829 24.862 15.1113 24.6797 15.1113H23.9766C23.9505 15.1113 23.9375 15.1113 23.9375 15.1113C23.9375 15.1113 23.9245 15.1113 23.8984 15.1113ZM23.2344 21.5957H21.0078C21.2943 21.179 21.6523 20.6582 22.082 20.0332C22.5117 19.4082 22.8958 18.8353 23.2344 18.3145V21.5957ZM19.3281 37.4941C17.1667 37.4941 15.1354 37.0775 13.2344 36.2441C11.3333 35.4368 9.67318 34.3236 8.25391 32.9043C6.83464 31.485 5.72135 29.8249 4.91406 27.9238C4.08073 26.0228 3.66406 23.9915 3.66406 21.8301C3.66406 19.7988 4.04167 17.8717 4.79688 16.0488C5.52604 14.2259 6.53516 12.6178 7.82422 11.2246C9.11328 9.83138 10.6172 8.69206 12.3359 7.80664C14.0807 6.94727 15.9557 6.42643 17.9609 6.24414V8.74414C17.9609 8.82227 17.9805 8.90039 18.0195 8.97852C18.0586 9.05664 18.1172 9.12174 18.1953 9.17383C18.2474 9.17383 18.293 9.18034 18.332 9.19336C18.3711 9.20638 18.4036 9.21289 18.4297 9.21289C18.4818 9.21289 18.5273 9.20638 18.5664 9.19336C18.6055 9.18034 18.651 9.16081 18.7031 9.13477L24.3672 5.3457C24.4453 5.29362 24.4974 5.23503 24.5234 5.16992C24.5495 5.10482 24.5625 5.02018 24.5625 4.91602C24.5625 4.83789 24.5495 4.76628 24.5234 4.70117C24.4974 4.63607 24.4453 4.57747 24.3672 4.52539L18.7031 0.736328C18.625 0.684246 18.5404 0.658203 18.4492 0.658203C18.3581 0.658203 18.2734 0.671223 18.1953 0.697266C18.1172 0.749348 18.0586 0.814453 18.0195 0.892578C17.9805 0.970703 17.9609 1.04883 17.9609 1.12695V3.08008C15.513 3.23633 13.2344 3.84831 11.125 4.91602C8.98958 5.95768 7.13411 7.31836 5.55859 8.99805C3.98307 10.6777 2.7526 12.6113 1.86719 14.7988C0.955729 17.0124 0.5 19.3561 0.5 21.8301C0.5 24.4342 0.994792 26.8691 1.98438 29.1348C2.97396 31.4264 4.32161 33.4251 6.02734 35.1309C7.73307 36.8366 9.71875 38.1842 11.9844 39.1738C14.276 40.1634 16.724 40.6582 19.3281 40.6582C20.526 40.6582 21.6979 40.541 22.8438 40.3066C24.0156 40.0983 25.1484 39.7793 26.2422 39.3496C27.3359 38.9199 28.3776 38.3796 29.3672 37.7285C30.3828 37.1035 31.3203 36.3743 32.1797 35.541L30.0312 33.2363C28.5729 34.6165 26.9193 35.6712 25.0703 36.4004C23.2214 37.1296 21.3073 37.4941 19.3281 37.4941ZM35.3828 12.0254C35.0443 11.5046 34.6862 10.9902 34.3086 10.4824C33.931 9.97461 33.5339 9.49935 33.1172 9.05664L30.8125 11.2051C31.151 11.5957 31.4766 11.9928 31.7891 12.3965C32.1016 12.8001 32.401 13.2233 32.6875 13.666L35.3828 12.0254ZM34.8359 19.7207L37.9609 19.291C37.8828 18.666 37.7721 18.0475 37.6289 17.4355C37.4857 16.8236 37.3099 16.2311 37.1016 15.6582L34.0938 16.6738C34.276 17.1686 34.4258 17.6699 34.543 18.1777C34.6602 18.6855 34.7578 19.1999 34.8359 19.7207ZM30.1094 6.40039C29.5885 6.06185 29.0612 5.73633 28.5273 5.42383C27.9935 5.11133 27.4401 4.83789 26.8672 4.60352L25.5781 7.49414C26.0469 7.70247 26.5091 7.93034 26.9648 8.17773C27.4206 8.42513 27.8568 8.70508 28.2734 9.01758L30.1094 6.40039ZM31.3984 31.752L33.8594 33.7832C34.25 33.3145 34.6211 32.8197 34.9727 32.2988C35.3242 31.778 35.6432 31.2441 35.9297 30.6973L33.1172 29.1738C32.8828 29.6426 32.6224 30.0918 32.3359 30.5215C32.0495 30.9512 31.737 31.3613 31.3984 31.752ZM34.9141 23.041C34.888 23.5618 34.8294 24.0762 34.7383 24.584C34.6471 25.0918 34.5234 25.5931 34.3672 26.0879L37.4141 26.9473C37.5964 26.3483 37.7396 25.7428 37.8438 25.1309C37.9479 24.5189 38.026 23.9004 38.0781 23.2754L34.9141 23.041Z" fill="#66A22A"/>
</svg>
