<svg width="45" height="36" viewBox="0 0 45 36" fill="none" xmlns="http://www.w3.org/2000/svg">
<path d="M4.04297 26.0781L0.625 13.4316C0.488281 12.8164 0.830078 12.2012 1.37695 12.0645L6.70898 10.6289L8.41797 16.9863L12.5879 15.8242L10.9473 9.53516L16.2109 8.09961C16.7578 7.96289 17.373 8.30469 17.5098 8.85156L20.9277 21.5664C21.0645 22.1133 20.7227 22.7285 20.1758 22.8652L5.3418 26.8301C4.79492 27.0352 4.17969 26.6934 4.04297 26.0781ZM26.875 0.375H44.375V27.7188C44.375 31.957 40.8887 35.375 36.7188 35.375C32.5488 35.375 29.1992 32.1621 29.0625 28.0605L2.12891 35.375C1.85547 35.4434 1.58203 35.3066 1.44531 35.0332L0.625 31.8203C0.556641 31.5469 0.693359 31.2734 0.966797 31.1367L24.6875 24.7109V2.5625C24.6875 1.40039 25.6445 0.375 26.875 0.375ZM36.7188 31C38.4961 31 40 29.5645 40 27.7188C40 25.9414 38.4961 24.4375 36.7188 24.4375C34.873 24.4375 33.4375 25.9414 33.4375 27.7188C33.4375 29.5645 34.873 31 36.7188 31Z" fill="#7FCA35"/>
</svg>
