<svg width="28" height="20" viewBox="0 0 28 20" fill="none" xmlns="http://www.w3.org/2000/svg">
<path d="M26.3496 9.27734C26.8418 9.76953 27.1289 10.4258 27.1289 11.123V14.6094C27.1289 14.9785 26.8008 15.2656 26.4727 15.2656H25.7344C25.7754 15.5117 25.8164 15.7168 25.8164 15.9219C25.8164 17.7676 24.3398 19.2031 22.5352 19.2031C20.6895 19.2031 19.2539 17.7676 19.2539 15.9219C19.2539 15.7168 19.2539 15.5117 19.2949 15.2656H12.6094C12.6504 15.5117 12.6914 15.7168 12.6914 15.9219C12.6914 17.7676 11.2148 19.2031 9.41016 19.2031C8.30273 19.2031 7.35938 18.7109 6.78516 17.8906C6.16992 18.7109 5.22656 19.2031 4.16016 19.2031C2.31445 19.2031 0.878906 17.7676 0.878906 15.9219V2.14062C0.878906 1.44336 1.45312 0.828125 2.19141 0.828125H19.2539C19.9512 0.828125 20.5664 1.44336 20.5664 2.14062V6.11914H22.084C22.7812 6.11914 23.4375 6.36523 23.9297 6.85742L26.3496 9.27734ZM4.16016 17.2344C4.85742 17.2344 5.47266 16.6602 5.47266 15.9219C5.47266 15.2246 4.85742 14.6094 4.16016 14.6094C3.42188 14.6094 2.84766 15.2246 2.84766 15.9219C2.84766 16.6602 3.42188 17.2344 4.16016 17.2344ZM9.41016 17.2344C10.1074 17.2344 10.7227 16.6602 10.7227 15.9219C10.7227 15.2246 10.1074 14.6094 9.41016 14.6094C8.67188 14.6094 8.09766 15.2246 8.09766 15.9219C8.09766 16.6602 8.67188 17.2344 9.41016 17.2344ZM20.5664 8.04688V10.0156H24.3398L22.5352 8.25195C22.4121 8.12891 22.248 8.04688 22.084 8.04688H20.5664ZM22.5352 17.2344C23.2324 17.2344 23.8477 16.6602 23.8477 15.9219C23.8477 15.2246 23.2324 14.6094 22.5352 14.6094C21.7969 14.6094 21.2227 15.2246 21.2227 15.9219C21.2227 16.6602 21.7969 17.2344 22.5352 17.2344Z" fill="#7FCA35"/>
</svg>
