<svg width="36" height="29" viewBox="0 0 36 29" fill="none" xmlns="http://www.w3.org/2000/svg">
<path d="M34.4609 14.2158C35.1172 14.8721 35.5 15.7471 35.5 16.6768V21.3252C35.5 21.8174 35.0625 22.2002 34.625 22.2002H33.6406C33.6953 22.5283 33.75 22.8018 33.75 23.0752C33.75 25.5361 31.7812 27.4502 29.375 27.4502C26.9141 27.4502 25 25.5361 25 23.0752C25 22.8018 25 22.5283 25.0547 22.2002H16.1406C16.1953 22.5283 16.25 22.8018 16.25 23.0752C16.25 25.5361 14.2812 27.4502 11.875 27.4502C10.3984 27.4502 9.14062 26.7939 8.375 25.7002C7.55469 26.7939 6.29688 27.4502 4.875 27.4502C2.41406 27.4502 0.5 25.5361 0.5 23.0752V4.7002C0.5 3.77051 1.26562 2.9502 2.25 2.9502H25C25.9297 2.9502 26.75 3.77051 26.75 4.7002V10.0049H28.7734C29.7031 10.0049 30.5781 10.333 31.2344 10.9893L34.4609 14.2158ZM4.875 24.8252C5.80469 24.8252 6.625 24.0596 6.625 23.0752C6.625 22.1455 5.80469 21.3252 4.875 21.3252C3.89062 21.3252 3.125 22.1455 3.125 23.0752C3.125 24.0596 3.89062 24.8252 4.875 24.8252ZM11.875 24.8252C12.8047 24.8252 13.625 24.0596 13.625 23.0752C13.625 22.1455 12.8047 21.3252 11.875 21.3252C10.8906 21.3252 10.125 22.1455 10.125 23.0752C10.125 24.0596 10.8906 24.8252 11.875 24.8252ZM26.75 12.5752V15.2002H31.7812L29.375 12.8486C29.2109 12.6846 28.9922 12.5752 28.7734 12.5752H26.75ZM29.375 24.8252C30.3047 24.8252 31.125 24.0596 31.125 23.0752C31.125 22.1455 30.3047 21.3252 29.375 21.3252C28.3906 21.3252 27.625 22.1455 27.625 23.0752C27.625 24.0596 28.3906 24.8252 29.375 24.8252Z" fill="white"/>
</svg>
