<svg width="32" height="33" viewBox="0 0 32 33" fill="none" xmlns="http://www.w3.org/2000/svg">
<rect y="0.896484" width="32" height="32" rx="16" fill="#81B441"/>
<path d="M22.3438 13.6465C22.3438 13.8027 22.3438 13.9277 22.3438 14.084C22.3438 18.4277 19.0625 23.3965 13.0312 23.3965C11.1562 23.3965 9.4375 22.8652 8 21.9277C8.25 21.959 8.5 21.9902 8.78125 21.9902C10.3125 21.9902 11.7188 21.459 12.8438 20.584C11.4062 20.5527 10.1875 19.6152 9.78125 18.3027C10 18.334 10.1875 18.3652 10.4062 18.3652C10.6875 18.3652 11 18.3027 11.25 18.2402C9.75 17.9277 8.625 16.6152 8.625 15.0215V14.9902C9.0625 15.2402 9.59375 15.3652 10.125 15.3965C9.21875 14.8027 8.65625 13.8027 8.65625 12.6777C8.65625 12.0527 8.8125 11.4902 9.09375 11.0215C10.7188 12.9902 13.1562 14.3027 15.875 14.459C15.8125 14.209 15.7812 13.959 15.7812 13.709C15.7812 11.8965 17.25 10.4277 19.0625 10.4277C20 10.4277 20.8438 10.8027 21.4688 11.459C22.1875 11.3027 22.9062 11.0215 23.5312 10.6465C23.2812 11.4277 22.7812 12.0527 22.0938 12.459C22.75 12.3965 23.4062 12.209 23.9688 11.959C23.5312 12.6152 22.9688 13.1777 22.3438 13.6465Z" fill="white"/>
</svg>
