<svg width="12" height="13" viewBox="0 0 12 13" fill="none" xmlns="http://www.w3.org/2000/svg">
<path d="M6.1875 0.6875C9.39844 0.6875 12 3.28906 12 6.5C12 9.71094 9.39844 12.3125 6.1875 12.3125C2.97656 12.3125 0.375 9.71094 0.375 6.5C0.375 3.28906 2.97656 0.6875 6.1875 0.6875ZM6.1875 2.9375C5.03906 2.9375 4.125 3.875 4.125 5C4.125 6.14844 5.03906 7.0625 6.1875 7.0625C7.3125 7.0625 8.25 6.14844 8.25 5C8.25 3.875 7.3125 2.9375 6.1875 2.9375ZM6.1875 11C7.54688 11 8.78906 10.3906 9.60938 9.40625C9.16406 8.58594 8.29688 8 7.3125 8C7.24219 8 7.19531 8.02344 7.125 8.04688C6.84375 8.14062 6.51562 8.1875 6.1875 8.1875C5.83594 8.1875 5.53125 8.14062 5.22656 8.04688C5.15625 8.02344 5.10938 8 5.0625 8C4.05469 8 3.1875 8.58594 2.74219 9.40625C3.5625 10.3906 4.80469 11 6.1875 11Z" fill="#81B441"/>
</svg>
